<?xml version="1.0" encoding="UTF-8"?>
<svg version="1.1" xmlns="http://www.w3.org/2000/svg" width="1280" height="1280">
<path d="M0 0 C2.22317214 2.8032176 3.8831601 5.57233143 5.42578125 8.796875 C6.11498657 10.21649536 6.11498657 10.21649536 6.81811523 11.66479492 C7.55783569 13.19197144 7.55783569 13.19197144 8.3125 14.75 C14.61171231 27.53748825 21.63899311 39.79933308 29 52 C29.5480127 52.91410645 30.09602539 53.82821289 30.66064453 54.77001953 C41.38341963 72.60908181 53.11577154 89.65495937 66 106 C66.86825869 107.12417348 67.73541428 108.24919965 68.6015625 109.375 C80.83789326 125.21691624 94.11816927 140.34652271 108.40625 154.37109375 C110 156 110 156 112 158.5625 C114.32756879 161.39922446 116.94080222 163.60376992 119.7265625 165.98046875 C122.25592427 168.22734166 124.62433707 170.59144327 127 173 C131.17791082 177.21594946 135.47168935 181.16713671 140 185 C141.43279297 186.23169922 141.43279297 186.23169922 142.89453125 187.48828125 C212.12543124 246.82295236 295.19848464 288.80266399 553.21118164 321.16015625 C639.58177081 314.21618951 723.59653727 286.93963114 860 198 C860.87914062 197.29488281 861.75828125 196.58976562 862.6640625 195.86328125 C868.43914711 191.20254395 873.9901318 186.35871527 879.44921875 181.33203125 C881.60075151 179.36500972 883.78291973 177.45446871 886 175.5625 C891.2691778 170.98863639 896.10245921 165.96342699 901 161 C903.90345426 158.0868514 906.81993914 155.18723389 909.7421875 152.29296875 C911.11984395 150.9245318 912.49744694 149.55604103 913.875 148.1875 C914.89787109 147.17719727 914.89787109 147.17719727 915.94140625 146.14648438 C920.50891081 141.60072984 924.81679406 136.90041819 929 132 C929.46196777 131.4649585 929.92393555 130.92991699 930.39990234 130.37866211 C964.43957672 90.89952684 992.26309235 46.8481789 1015 0 C1023.84879747 3.33188913 1032.34337343 7.38211761 1040.875 11.4375 C1043.8925332 12.86735794 1046.91100593 14.29522454 1049.9296875 15.72265625 C1050.68642761 16.08077393 1051.44316772 16.4388916 1052.22283936 16.80786133 C1057.26359402 19.18996511 1062.31746632 21.54177592 1067.3828125 23.87109375 C1068.03474579 24.17133957 1068.68667908 24.47158539 1069.35836792 24.78092957 C1072.43431076 26.19703806 1075.51216753 27.6085342 1078.59326172 29.01342773 C1079.67623535 29.51173096 1080.75920898 30.01003418 1081.875 30.5234375 C1082.82117187 30.95575684 1083.76734375 31.38807617 1084.7421875 31.83349609 C1087 33 1087 33 1089 35 C1081.76850021 50.58903895 1074.03691263 65.72224617 1065.39990234 80.57910156 C1064.21171923 82.63386678 1063.04462145 84.69721902 1061.89453125 86.7734375 C1044.17835357 118.57945373 1022.27871507 148.07746825 999 176 C998.50580566 176.59329102 998.01161133 177.18658203 997.50244141 177.79785156 C987.47314682 189.78545095 976.88994135 201.25892924 965.74609375 212.21875 C963.86735517 214.07043901 963.86735517 214.07043901 961.9375 216.625 C959.67468169 219.39877728 957.12473968 221.52983949 954.40625 223.84765625 C951.48841665 226.45760134 948.74854032 229.21406165 946 232 C941.49417271 236.54967454 936.89151101 240.86366963 932 245 C930.98610983 245.87659969 929.97317344 246.75430314 928.9609375 247.6328125 C914.14632379 260.4643003 898.89210745 272.5283248 883 284 C882.29262695 284.5141748 881.58525391 285.02834961 880.85644531 285.55810547 C806.17650411 339.76015065 718.92920398 376.53272715 583.73681641 400.578125 C581.27911701 400.85559165 578.82293143 401.14687638 576.36865234 401.453125 C530.80370558 407.03226085 481.5214839 406.80558927 436 401 C434.54749927 400.82552432 433.09485704 400.65222338 431.64208984 400.47998047 C364.90306241 392.49771202 299.9985474 374.26314326 239 346 C237.3595874 345.24251465 237.3595874 345.24251465 235.68603516 344.46972656 C220.52357681 337.42699544 205.83345199 329.79827621 191.38867188 321.38378906 C189.34767136 320.20141059 187.29765178 319.04129763 185.234375 317.8984375 C153.4244834 300.18439834 123.92418078 278.28008985 96 255 C95.40670898 254.50580566 94.81341797 254.01161133 94.20214844 253.50244141 C82.54994058 243.75374849 71.33160604 233.50327873 60.69140625 222.65625 C59.00604407 221.00591844 57.25526008 219.50214899 55.4375 218 C52.27464725 215.34888972 49.68214937 212.41050478 47.015625 209.26953125 C44.61690682 206.56864895 42.0716987 204.03388599 39.5 201.5 C35.11638915 197.16274931 30.98752161 192.70218944 27 188 C26.12196014 186.984927 25.24297114 185.97067462 24.36328125 184.95703125 C11.53411911 170.14278593 -0.52935098 154.89068585 -12 139 C-12.77126221 137.93894043 -12.77126221 137.93894043 -13.55810547 136.85644531 C-36.55917076 105.16542337 -56.97276636 70.73774458 -73 35 C-69.55294157 32.1488774 -65.74694506 30.31764971 -61.71875 28.4453125 C-61.00050552 28.10708969 -60.28226105 27.76886688 -59.54225159 27.4203949 C-57.19691838 26.31742722 -54.84855539 25.22108774 -52.5 24.125 C-50.87932337 23.36482709 -49.25880048 22.60432633 -47.63842773 21.84350586 C-43.54448059 19.92296873 -39.44775365 18.00845182 -35.34979248 16.09649658 C-33.11442505 15.05339479 -30.8796249 14.0090886 -28.64501953 12.96435547 C-24.78568451 11.16049935 -20.924643 9.36033542 -17.0625 7.5625 C-15.91007812 7.0257666 -14.75765625 6.4890332 -13.5703125 5.93603516 C-12.50683594 5.44280762 -11.44335938 4.94958008 -10.34765625 4.44140625 C-9.42992432 4.01545166 -8.51219238 3.58949707 -7.56665039 3.15063477 C-5.0683623 2.03064696 -2.54936562 0.99750288 0 0 Z " fill="#A90B2A" transform="translate(132,876)"/>
<path d="M0 0 C1.61183669 0.00222217 3.22367344 0.0043987 4.83551025 0.00653076 C26.80163124 0.04679475 48.65036886 0.19766043 70.46679688 3.03387451 C72.81784846 3.33739687 75.170451 3.62642649 77.5234375 3.91455078 C162.43685846 14.42568421 244.57049257 40.99000534 450.625 184.3125 C453.7464735 187.44508194 456.8838047 190.56142571 460.0234375 193.67578125 C461.68235698 195.32545516 463.34120932 196.97519658 465 198.625 C465.825 199.44162109 466.65 200.25824219 467.5 201.09960938 C472.4246479 206.00471502 477.12025758 211.02051424 481.625 216.3125 C482.57484099 217.40684045 483.52533217 218.50061699 484.4765625 219.59375 C497.2159435 234.3442534 509.21660822 249.50806125 520.625 265.3125 C521.1391748 266.01987305 521.65334961 266.72724609 522.18310547 267.45605469 C545.09001209 299.01734418 565.98211722 333.52255808 581.625 369.3125 C578.09159165 372.24823428 574.14156697 374.11500888 570.01171875 376.05078125 C569.25696762 376.40860184 568.50221649 376.76642242 567.72459412 377.13508606 C565.25616941 378.30327499 562.78450502 379.46440885 560.3125 380.625 C558.60851916 381.42878459 556.90458073 382.23265907 555.20068359 383.03662109 C539.75650949 390.30832131 524.21672844 397.36360644 508.625 404.3125 C506.40182786 401.5092824 504.7418399 398.74016857 503.19921875 395.515625 C502.7395874 394.56896973 502.27995605 393.62231445 501.80639648 392.64697266 C501.31341064 391.62909668 500.8204248 390.6112207 500.3125 389.5625 C494.48570179 377.72543902 488.04451108 366.34121714 481.25634766 355.03271484 C479.77730273 352.56645944 478.31429366 350.09152597 476.85546875 347.61328125 C466.63573721 330.40460886 455.0533919 313.99298777 442.625 298.3125 C441.75901086 297.19249181 440.89448047 296.07135452 440.03125 294.94921875 C427.7953472 279.10148662 414.50984808 263.96893899 400.21875 249.94140625 C398.625 248.3125 398.625 248.3125 396.625 245.75 C394.29743121 242.91327554 391.68419778 240.70873008 388.8984375 238.33203125 C386.36907573 236.08515834 384.00066293 233.72105673 381.625 231.3125 C377.44708918 227.09655054 373.15331065 223.14536329 368.625 219.3125 C367.66980469 218.49136719 366.71460938 217.67023438 365.73046875 216.82421875 C294.71456764 155.95970397 209.97117649 114.41551688 -41.4765625 82.875 C-120.46865464 89.02158827 -196.78948472 111.89013074 -309.375 175.3125 C-311.05970876 176.43778012 -312.74459947 177.5627879 -314.4296875 178.6875 C-340.88177253 196.45469573 -366.23062307 216.7877266 -388.578125 239.55078125 C-390.29964597 241.23862029 -392.0787857 242.77864948 -393.9375 244.3125 C-397.12710309 246.98487016 -399.74623581 249.95277689 -402.43359375 253.12109375 C-404.60480764 255.57190058 -406.90610694 257.83907029 -409.25 260.125 C-413.56487121 264.38764887 -417.39512587 268.87982178 -421.17578125 273.6171875 C-423.24333412 276.15113329 -425.39780754 278.54397805 -427.625 280.9375 C-433.39489337 287.28738265 -438.50071105 294.13056237 -443.63818359 300.99316406 C-444.7940328 302.53667931 -445.95320623 304.07771093 -447.11572266 305.61621094 C-456.09514774 317.50347443 -464.46231156 329.68987796 -472.375 342.3125 C-472.97489746 343.26938721 -472.97489746 343.26938721 -473.58691406 344.24560547 C-485.64217986 363.62431247 -496.41468765 383.78981054 -506.375 404.3125 C-515.62702923 400.8571967 -524.46986327 396.56003497 -533.375 392.3125 C-536.57984265 390.7884939 -539.78578522 389.26681548 -542.9921875 387.74609375 C-543.78704559 387.36891708 -544.58190369 386.99174042 -545.40084839 386.60313416 C-550.4007579 384.23483191 -555.41424753 381.89900172 -560.4453125 379.59765625 C-561.05582458 379.31812103 -561.66633667 379.03858582 -562.29534912 378.75057983 C-565.12113256 377.45818629 -567.94952662 376.17191029 -570.78125 374.89257812 C-572.25464844 374.2206543 -572.25464844 374.2206543 -573.7578125 373.53515625 C-574.60746582 373.15109619 -575.45711914 372.76703613 -576.33251953 372.37133789 C-578.375 371.3125 -578.375 371.3125 -580.375 369.3125 C-572.38947164 352.21363307 -563.93332991 335.60006217 -554.375 319.3125 C-553.65908691 318.0757251 -553.65908691 318.0757251 -552.92871094 316.81396484 C-537.17406614 289.60189422 -519.06476564 263.81114237 -499.375 239.3125 C-498.62992187 238.384375 -497.88484375 237.45625 -497.1171875 236.5 C-484.54458779 220.9983 -471.35611639 206.09369887 -457.12109375 192.09375 C-455.24235517 190.24206099 -455.24235517 190.24206099 -453.3125 187.6875 C-451.04968169 184.91372272 -448.49973968 182.78266051 -445.78125 180.46484375 C-442.86341665 177.85489866 -440.12354032 175.09843835 -437.375 172.3125 C-432.86917271 167.76282546 -428.26651101 163.44883037 -423.375 159.3125 C-422.36110983 158.43590031 -421.34817344 157.55819686 -420.3359375 156.6796875 C-405.52132379 143.8481997 -390.26710745 131.7841752 -374.375 120.3125 C-373.31394043 119.54123779 -373.31394043 119.54123779 -372.23144531 118.75439453 C-303.08490317 68.56844177 -222.70478908 32.87605923 -77.375 4.0625 C-76.15022949 3.91135742 -74.92545898 3.76021484 -73.66357422 3.60449219 C-69.57077058 3.12929575 -65.47613049 2.70811576 -61.375 2.3125 C-60.49559753 2.22529694 -59.61619507 2.13809387 -58.71014404 2.04824829 C-39.13361858 0.1597954 -19.64555524 -0.04787284 0 0 Z " fill="#A90B2A" transform="translate(639.375,-0.3125)"/>
<path d="M0 0 C0 43.89 0 87.78 0 133 C10.89 131.02 10.89 131.02 22 129 C30.71163357 128.03204071 39.20020792 127.75675756 47.9375 127.75 C49.11126694 127.74898788 49.11126694 127.74898788 50.30874634 127.74795532 C61.80370716 127.76371375 72.8111306 128.13046576 84 131 C84.66370605 131.16628906 85.32741211 131.33257813 86.01123047 131.50390625 C108.63149123 137.33025531 127.41547865 149.31790607 140.1875 169.25 C164.37812977 210.38367006 164.20349214 267.32448914 152.71191406 312.42773438 C146.18514004 336.01007016 132.5649787 355.63769756 111.43359375 368.12109375 C60.22363922 396.14383338 -7.19792833 384.68175687 -60.45825195 369.7902832 C-63.0178423 368.99445245 -65.51125822 367.99549671 -68 367 C-68 248.2 -68 129.4 -68 7 C-6 0 -6 0 0 0 Z M0 190 C0 233.23 0 276.46 0 321 C19.98531473 327.66177158 46.5515646 329.94830143 65.9375 320.375 C76.83831062 313.7601164 82.50071638 303.60105029 86 291.55859375 C88.04708401 283.06516344 89.14741993 274.70873137 89.203125 265.9765625 C89.21013931 265.23699814 89.21715363 264.49743378 89.22438049 263.73545837 C89.24177209 261.36524291 89.24823107 258.9952769 89.25 256.625 C89.25067474 255.81731171 89.25134949 255.00962341 89.25204468 254.17745972 C89.22666837 235.09850836 88.7673374 213.84905677 75 199 C74.43796875 198.38511719 73.8759375 197.77023437 73.296875 197.13671875 C63.25623814 187.28592586 49.92848623 185.80019803 36.5625 185.6875 C34.94118164 185.64399414 34.94118164 185.64399414 33.28710938 185.59960938 C21.50669902 185.51184701 12.18407401 187.78471382 0 190 Z " fill="#A90C2B" transform="translate(481,384)"/>
<path d="M0 0 C13.03618305 12.10218822 19.46594887 28.73533525 21.30612183 46.16134644 C21.4317388 47.33079011 21.4317388 47.33079011 21.55989349 48.5238589 C22.35759351 56.49745771 22.45579468 64.41625477 22.41455078 72.42236328 C22.41398444 74.00135287 22.41430755 75.58034299 22.41543579 77.15933228 C22.41600164 81.38132023 22.40437415 85.60319086 22.39028788 89.82515192 C22.37765015 94.26134782 22.37659987 98.69754742 22.37423706 103.13375854 C22.36806014 111.50551926 22.35170149 119.87722675 22.33153808 128.24896419 C22.30906002 137.79211877 22.29815593 147.3352761 22.28814721 156.87845063 C22.26733119 176.4827987 22.23223021 196.0870991 22.1875 215.69140625 C19.83511821 216.48831222 17.48173114 217.28201055 15.12768555 218.07397461 C14.14305958 218.40807468 14.14305958 218.40807468 13.13854218 218.74892426 C6.51661279 220.97152807 -0.19507171 222.68269151 -7 224.25390625 C-8.27794434 224.55055176 -9.55588867 224.84719727 -10.87255859 225.15283203 C-33.4266676 230.27677524 -56.26021773 232.91334881 -79.375 232.87890625 C-80.12539551 232.878302 -80.87579102 232.87769775 -81.64892578 232.8770752 C-112.55123676 232.80961009 -144.97492253 229.19221177 -168.52734375 207.1328125 C-182.858657 191.8215804 -186.36909222 171.3159084 -186.1875 151.12890625 C-186.19910156 149.83533203 -186.21070313 148.54175781 -186.22265625 147.20898438 C-186.16962586 129.57637911 -181.93388119 113.57496055 -170.8125 99.69140625 C-170.06419922 98.75361328 -170.06419922 98.75361328 -169.30078125 97.796875 C-148.47051426 74.55302544 -108.56988879 75.15693354 -80.0625 73.56640625 C-79.27993835 73.52184296 -78.49737671 73.47727966 -77.69110107 73.43136597 C-67.05411839 72.83416928 -56.4658494 72.57675626 -45.8125 72.69140625 C-46.24596845 59.88853726 -46.24596845 59.88853726 -49.8125 47.69140625 C-50.121875 46.72203125 -50.43125 45.75265625 -50.75 44.75390625 C-52.11145768 42.11107664 -53.04976343 41.73676603 -55.8125 40.69140625 C-56.781875 40.19640625 -57.75125 39.70140625 -58.75 39.19140625 C-68.69242213 35.02119992 -80.29081751 35.33394758 -90.875 35.37890625 C-91.56436646 35.38072906 -92.25373291 35.38255188 -92.96398926 35.38442993 C-116.07894852 35.48606689 -138.58622535 38.85308006 -161.23242188 43.2800293 C-163.8125 43.69140625 -163.8125 43.69140625 -167.8125 43.69140625 C-167.15715496 31.31534093 -166.0180385 19.01776474 -164.75 6.69140625 C-164.56156738 4.83726818 -164.37341473 2.98310163 -164.18554688 1.12890625 C-163.73108 -3.35059408 -163.2728667 -7.82969608 -162.8125 -12.30859375 C-153.08601609 -15.10437053 -143.44228168 -17.87575108 -133.4375 -19.49609375 C-132.46675537 -19.65625977 -131.49601074 -19.81642578 -130.49584961 -19.98144531 C-127.60411476 -20.44487797 -124.71013148 -20.88371661 -121.8125 -21.30859375 C-121.00151855 -21.4286377 -120.19053711 -21.54868164 -119.35498047 -21.67236328 C-80.23882551 -27.17832929 -31.88285424 -26.17050952 0 0 Z M-75.875 121.50390625 C-77.12087891 121.57416016 -78.36675781 121.64441406 -79.65039062 121.71679688 C-98.12879269 122.64413484 -98.12879269 122.64413484 -113.5625 131.56640625 C-118.79683695 138.83631869 -118.89433661 147.03671338 -117.8125 155.69140625 C-115.61773805 163.15171297 -111.62796026 167.97377026 -104.83984375 171.8046875 C-87.3281992 180.06489719 -63.88623722 177.20984055 -45.8125 172.69140625 C-45.8125 155.53140625 -45.8125 138.37140625 -45.8125 120.69140625 C-55.95806568 120.69140625 -65.79526291 120.83959561 -75.875 121.50390625 Z " fill="#A90B2B" transform="translate(345.8125,535.30859375)"/>
<path d="M0 0 C0.90492188 0.41636719 1.80984375 0.83273437 2.7421875 1.26171875 C18.59238214 9.09701327 29.20310488 22.50442343 35 39 C37.66261252 47.40941788 39.12679728 55.44327581 39.12025452 64.29563904 C39.12153615 65.34591635 39.12153615 65.34591635 39.12284368 66.41741139 C39.1244804 68.74501644 39.11900697 71.07254815 39.11352539 73.40014648 C39.1132431 75.07603453 39.11340207 76.7519227 39.1139679 78.42781067 C39.11425424 82.96445244 39.10838377 87.50106766 39.10139394 92.03770328 C39.09513335 96.78360277 39.09455446 101.5295029 39.09336853 106.27540588 C39.09026319 115.25666793 39.08206055 124.23791777 39.07201904 133.21917444 C39.06083315 143.44646821 39.05534121 153.67376257 39.05032361 163.90106094 C39.03987727 184.93404743 39.02229327 205.96702295 39 227 C37.71933699 227.48380276 36.43833743 227.9667147 35.15719604 228.44924927 C34.44387556 228.71826616 33.73055508 228.98728306 32.99561882 229.26445198 C-6.81891532 243.93934953 -55.97041153 249.02242386 -98 242 C-98.7832666 241.87109375 -99.5665332 241.7421875 -100.37353516 241.609375 C-122.31411222 237.84439812 -142.35678313 229.8587336 -156.3125 211.6875 C-170.62730411 190.90794564 -171.25978825 163.10652895 -167 139 C-163.43540358 123.5762655 -156.08012366 110.12234835 -142.6875 101.1875 C-118.37908136 86.86469731 -89.27349354 86.32101837 -61.8125 84.8125 C-61.04216431 84.76961853 -60.27182861 84.72673706 -59.47814941 84.68255615 C-48.97687207 84.11080436 -38.51613558 83.89547295 -28 84 C-28.25720408 80.99827715 -28.5303346 77.99939603 -28.8125 75 C-28.91788086 73.74123047 -28.91788086 73.74123047 -29.02539062 72.45703125 C-29.67220005 65.78195795 -30.59426072 58.24212682 -36.0625 53.6875 C-46.1595148 45.84846742 -60.6654481 46.76049423 -72.75 46.75 C-73.45218658 46.74932526 -74.15437317 46.74865051 -74.87783813 46.74795532 C-98.41989887 46.7835048 -121.35267298 50.28346613 -144.44165039 54.58862305 C-147 55 -147 55 -150 55 C-150.08459197 48.7185544 -149.79387741 42.61012342 -149.16015625 36.36328125 C-149.07374374 35.48020798 -148.98733124 34.5971347 -148.89830017 33.68730164 C-148.71624727 31.83584521 -148.53210337 29.98459329 -148.34594727 28.13354492 C-148.06226888 25.31019973 -147.78548798 22.48624154 -147.50976562 19.66210938 C-147.33113211 17.85412681 -147.15210911 16.04618267 -146.97265625 14.23828125 C-146.89032242 13.4006575 -146.80798859 12.56303375 -146.72315979 11.70002747 C-146.29181737 7.43364947 -145.76556534 3.22273755 -145 -1 C-101.89870661 -15.02751185 -41.99377968 -20.74618071 0 0 Z M-96 142 C-100.8394371 148.24856731 -101.46208714 156.05922212 -100.74609375 163.71484375 C-99.44930985 171.48386439 -96.07713579 176.77043827 -89.9453125 181.68359375 C-74.22364959 192.32255038 -47.51442608 188.29199198 -30 185 C-29.34 184.67 -28.68 184.34 -28 184 C-28 166.84 -28 149.68 -28 132 C-63.76831291 129.98804299 -63.76831291 129.98804299 -96 142 Z " fill="#A90B2A" transform="translate(1081,524)"/>
<path d="M0 0 C0.71710327 6.84966205 1.42858873 13.69989117 2.13623047 20.55053711 C2.37745918 22.87944654 2.61995853 25.20822473 2.86376953 27.53686523 C3.2146335 30.8901223 3.56087755 34.24382968 3.90625 37.59765625 C4.07030334 39.15118553 4.07030334 39.15118553 4.2376709 40.73609924 C4.76031445 45.85524563 5.12619853 50.85425491 5 56 C-1.14597366 55.31368676 -7.20843329 54.29660152 -13.30004883 53.23510742 C-61.89947417 43.86352299 -61.89947417 43.86352299 -108.875 53.375 C-113.02295004 56.46508359 -114.94676915 59.99715344 -116 65 C-116.49523316 69.91985729 -116.49603114 73.86326197 -114.5 78.4375 C-105.1934864 87.97667644 -86.68195137 86.15288282 -74.375 86.5 C-45.26327563 87.3269459 -13.28835445 88.36813315 8.1875 110.83984375 C20.00719212 124.92667509 23.55939346 142.95632399 23.39111328 160.90405273 C23.37503197 162.93346589 23.39106912 164.96088083 23.41015625 166.99023438 C23.44356399 187.49345993 18.05625751 205.43079552 3.875 220.625 C-22.53040083 245.83015534 -65.25201359 245.85175404 -99.39071655 245.20288086 C-120.12354843 244.6964678 -140.03128691 241.55334009 -160 236 C-161.13864502 235.68748291 -161.13864502 235.68748291 -162.30029297 235.36865234 C-172.45411496 232.54588504 -172.45411496 232.54588504 -175 230 C-175.43032837 227.80555725 -175.43032837 227.80555725 -175.68603516 225.04711914 C-175.78598785 224.01587418 -175.88594055 222.98462921 -175.98892212 221.9221344 C-176.08796844 220.80443161 -176.18701477 219.68672882 -176.2890625 218.53515625 C-176.39721283 217.39090683 -176.50536316 216.24665741 -176.61679077 215.06773376 C-176.96122772 211.4000475 -177.29306109 207.73133632 -177.625 204.0625 C-177.85598327 201.59172312 -178.08774425 199.12101882 -178.3203125 196.65039062 C-178.74234479 192.12809604 -179.1632271 187.60572112 -179.57275391 183.08227539 C-179.65554596 182.17119522 -179.73833801 181.26011505 -179.82363892 180.32142639 C-180 178 -180 178 -180 175 C-174.97130116 175.96824626 -169.96347803 176.98386889 -164.984375 178.18359375 C-142.6521598 183.55809892 -120.37239966 186.18770216 -97.4074707 186.18530273 C-95.06898904 186.18749392 -92.7309773 186.20574539 -90.39257812 186.22460938 C-69.4239298 186.71320621 -69.4239298 186.71320621 -51.08984375 178.2890625 C-45.82536257 172.38985664 -45.64214407 167.3079451 -45.73046875 159.52734375 C-46.08447813 154.89443836 -46.87493459 151.5057391 -50 148 C-58.82917759 141.10285422 -71.89500176 141.7113854 -82.50485229 141.53695679 C-86.15364203 141.47335389 -89.80134471 141.37207708 -93.44921875 141.26953125 C-94.1781282 141.24909256 -94.90703766 141.22865387 -95.65803528 141.20759583 C-123.24533642 140.38928988 -151.8769396 138.79755468 -172.1875 117.875 C-185.61339646 102.0153255 -186.18289681 80.74663158 -185 61 C-183.27126637 40.95549358 -175.42830935 23.29169968 -160 10 C-117.42743896 -22.420122 -47.64223563 -14.5542815 0 0 Z " fill="#A90B2A" transform="translate(858,523)"/>
<path d="M0 0 C4.39200613 0.4979321 8.31250893 1.68631955 12.4609375 3.17724609 C13.07640442 3.39690536 13.69187134 3.61656464 14.32598877 3.84288025 C16.34417451 4.56469232 18.35961529 5.29384481 20.375 6.0234375 C21.7868246 6.53082671 23.19877329 7.03787074 24.61083984 7.54458618 C27.56400416 8.60558583 30.51586216 9.67012007 33.46679688 10.73730469 C37.23715686 12.10060846 41.01028935 13.45603565 44.78439331 14.80893517 C47.69886378 15.85448246 50.61199249 16.90372651 53.52471924 17.95412064 C54.91493136 18.45507079 56.30551108 18.9550021 57.69647217 19.45386887 C59.64534819 20.15356986 61.59240442 20.85812053 63.5390625 21.56396484 C64.64459473 21.96287933 65.75012695 22.36179382 66.88916016 22.77279663 C70.03147459 24.01241649 73.00323853 25.44430627 76 27 C75.41672637 30.99456281 74.5581231 34.63328431 73.21484375 38.4375 C72.85302002 39.48147949 72.49119629 40.52545898 72.1184082 41.60107422 C71.7287085 42.72271973 71.33900879 43.84436523 70.9375 45 C59.36561607 79.11026759 51.93055663 114.30378572 47.26428223 149.98706055 C47.01376611 151.89514866 46.75468947 153.80210714 46.49511719 155.70898438 C41.00698718 197.81873555 41.2979933 243.94422373 47 286 C47.17394813 287.34236923 47.34727063 288.68481966 47.52001953 290.02734375 C52.37714397 327.31577831 60.6811813 364.07481436 73.29443359 399.52490234 C73.66262207 400.58016113 74.03081055 401.63541992 74.41015625 402.72265625 C74.74152588 403.64828369 75.07289551 404.57391113 75.41430664 405.52758789 C76.06898076 408.29119139 76.12468386 409.40910358 75 412 C72.76531982 413.24461365 72.76531982 413.24461365 69.76855469 414.30249023 C68.6493866 414.70648544 67.53021851 415.11048065 66.37713623 415.52671814 C65.15440002 415.94973709 63.93166382 416.37275604 62.671875 416.80859375 C61.40355547 417.26027301 60.13576023 417.71342694 58.86846924 418.16798401 C55.51803229 419.36549645 52.16115758 420.54382014 48.80249023 421.71801758 C44.77207536 423.13084411 40.74948915 424.56575704 36.72569656 425.99730778 C33.58239669 427.11509723 30.43781005 428.22863803 27.29022217 429.33433533 C26.13322815 429.7414827 24.97623413 430.14863007 23.78417969 430.56811523 C22.66313843 430.96191376 21.54209717 431.35571228 20.38708496 431.76144409 C15.81718117 433.43252155 11.32625823 435.28815622 6.84259033 437.17762756 C3.7524709 438.07161113 2.04886644 437.90672632 -1 437 C-17.24890636 390.03786934 -28.65999736 342.75780881 -34.70574951 293.38476562 C-34.97652962 291.19021671 -35.25839421 288.99741775 -35.54345703 286.8046875 C-41.1040942 242.36376601 -41.05218287 193.56895471 -35.27862549 149.15820312 C-34.97510313 146.80715154 -34.68607351 144.454549 -34.39794922 142.1015625 C-19.1816728 19.1816728 -19.1816728 19.1816728 0 0 Z " fill="#A90B2A" transform="translate(38,421)"/>
<path d="M0 0 C1.32104492 2.61914062 1.32104492 2.61914062 2.48046875 6.15625 C2.69449341 6.7968486 2.90851807 7.4374472 3.12902832 8.09745789 C3.83347586 10.22613601 4.51157912 12.36210564 5.1875 14.5 C5.67329388 16.00310486 6.15938233 17.50611454 6.64575195 19.0090332 C19.70236257 59.70913248 28.55124127 101.15552608 33.70574951 143.58337402 C33.97884499 145.82625775 34.26075389 148.06788229 34.54345703 150.30957031 C40.01434101 194.77205141 40.02942384 243.40413881 34.27862549 287.83465576 C33.97560215 290.18960841 33.68640491 292.54605233 33.39794922 294.90283203 C27.9776572 338.69127717 18.35625601 381.24047449 4.5 423.125 C4.28635803 423.77364014 4.07271606 424.42228027 3.8526001 425.09057617 C0.35555415 435.64444585 0.35555415 435.64444585 -2 438 C-9.28633589 435.3666878 -16.57228967 432.73232123 -23.85778809 430.09669304 C-27.24257821 428.87223457 -30.62748763 427.64810834 -34.01269531 426.42480469 C-35.33398693 425.94727269 -36.65527601 425.46973367 -37.9765625 424.9921875 C-38.62503647 424.75785633 -39.27351044 424.52352516 -39.94163513 424.28209305 C-43.14972729 423.12222746 -46.3567761 421.95960725 -49.56176758 420.79119873 C-54.83407165 418.86941577 -60.10551954 416.95297494 -65.41015625 415.12207031 C-66.17295898 414.85306915 -66.93576172 414.58406799 -67.72167969 414.30691528 C-69.62989006 413.63464657 -71.54321617 412.97694397 -73.45703125 412.32080078 C-76 411 -76 411 -76.99975586 409.20800781 C-77.0000876 406.20777585 -76.20142223 403.92908402 -75.19140625 401.1015625 C-74.77793945 399.91554443 -74.36447266 398.72952637 -73.93847656 397.50756836 C-73.71421997 396.87623993 -73.48996338 396.2449115 -73.25891113 395.5944519 C-60.82526654 360.43208321 -53.0949333 323.95321235 -48.26428223 287.01293945 C-48.01376611 285.10485134 -47.75468947 283.19789286 -47.49511719 281.29101562 C-42.00546619 239.16959413 -42.31928768 193.06858217 -48 151 C-48.16628906 149.69224609 -48.33257813 148.38449219 -48.50390625 147.03710938 C-52.17667494 118.34715871 -58.18720969 90.05637524 -66.125 62.25 C-66.3248349 61.54804504 -66.5246698 60.84609009 -66.7305603 60.12286377 C-68.54309174 53.80285898 -70.41891497 47.52749299 -72.67480469 41.34960938 C-72.95581024 40.57872986 -73.2368158 39.80785034 -73.52633667 39.01361084 C-74.07437927 37.52806991 -74.63260792 36.04623506 -75.2024231 34.56890869 C-77.02794324 29.65283636 -77.02794324 29.65283636 -76.91137695 26.92950439 C-76 25 -76 25 -73.63796997 23.71069336 C-72.58971039 23.34081299 -71.54145081 22.97093262 -70.46142578 22.58984375 C-69.27574005 22.1626001 -68.09005432 21.73535645 -66.86843872 21.29516602 C-65.5608405 20.84229145 -64.25312874 20.3897446 -62.9453125 19.9375 C-61.60495414 19.46097051 -60.26510651 18.98300226 -58.92575073 18.50366211 C-55.38716436 17.2415522 -51.84205326 15.99886431 -48.29522705 14.76013184 C-44.72666698 13.51022754 -41.1643368 12.24284411 -37.6015625 10.9765625 C-31.18295125 8.69734895 -24.75995317 6.43126746 -18.32867432 4.18798828 C-16.14255724 3.40777333 -13.96618518 2.59958196 -11.80169678 1.76123047 C-10.82799133 1.38498535 -9.85428589 1.00874023 -8.85107422 0.62109375 C-8.00632538 0.28392334 -7.16157654 -0.05324707 -6.29122925 -0.40063477 C-3.72086523 -1.07301918 -2.43257852 -1.04585044 0 0 Z " fill="#A90B2A" transform="translate(1243,422)"/>
</svg>
