<?xml version="1.0" encoding="UTF-8"?>
<svg version="1.1" xmlns="http://www.w3.org/2000/svg" width="797" height="162">
<path d="M0 0 C1.42012445 1.20101954 2.81470267 2.43265783 4.1875 3.6875 C5.50814453 4.87085938 5.50814453 4.87085938 6.85546875 6.078125 C21.9490434 20.31813198 31.50822134 39.12901195 32.40234375 60.05859375 C33.04933368 83.55554896 26.19452288 104.80336763 9.8684082 122.09985352 C-5.51355448 137.79092969 -26.35372803 146.6697101 -48.3125 146.9375 C-70.13138192 146.92477465 -90.45307484 138.68823854 -106.0546875 123.515625 C-110.00102964 119.4686679 -113.53276425 115.28947156 -116.8125 110.6875 C-117.60914062 109.59115234 -117.60914062 109.59115234 -118.421875 108.47265625 C-129.89266006 91.17778702 -132.65009886 67.97723881 -128.78735352 47.88500977 C-123.99522489 26.96964734 -111.27814967 8.81784879 -93.4375 -3 C-64.33908284 -20.73310741 -27.74401538 -20.53649537 0 0 Z " fill="#AA7B50" transform="translate(129.8125,15.3125)"/>
<path d="M0 0 C55.48708101 0 55.48708101 0 70.9375 14.0625 C81.04138821 25.01624797 83.64210336 37.54337952 83.13183594 51.96630859 C82.46699122 62.22215389 76.67208947 72.3910456 69.23046875 79.33984375 C48.90501508 94.46824622 24.32362015 92 0 92 C0 61.64 0 31.28 0 0 Z M17 7 C17 32.41 17 57.82 17 84 C32.45007641 84 43.95143865 83.9143683 55 73 C63.00763568 64.52555148 65.63471194 54.77003094 65.54516602 43.35229492 C65.25787156 36.53419558 63.33614212 30.95872051 60 25 C59.45859375 23.98873047 59.45859375 23.98873047 58.90625 22.95703125 C54.15098144 15.26368604 45.8673498 10.65751633 37.296875 8.48828125 C30.22852027 6.98565482 24.48418182 7 17 7 Z " fill="#1A3B76" transform="translate(194,35)"/>
<path d="M0 0 C1.42012445 1.20101954 2.81470267 2.43265783 4.1875 3.6875 C5.50814453 4.87085938 5.50814453 4.87085938 6.85546875 6.078125 C21.9490434 20.31813198 31.50822134 39.12901195 32.40234375 60.05859375 C33.04933368 83.55554896 26.19452288 104.80336763 9.8684082 122.09985352 C-5.51355448 137.79092969 -26.35372803 146.6697101 -48.3125 146.9375 C-70.13138192 146.92477465 -90.45307484 138.68823854 -106.0546875 123.515625 C-110.00102964 119.4686679 -113.53276425 115.28947156 -116.8125 110.6875 C-117.60914062 109.59115234 -117.60914062 109.59115234 -118.421875 108.47265625 C-129.89266006 91.17778702 -132.65009886 67.97723881 -128.78735352 47.88500977 C-123.99522489 26.96964734 -111.27814967 8.81784879 -93.4375 -3 C-64.33908284 -20.73310741 -27.74401538 -20.53649537 0 0 Z M-80.8125 -3.3125 C-81.56273437 -3.00054688 -82.31296875 -2.68859375 -83.0859375 -2.3671875 C-100.03545147 5.03793996 -112.95953033 20.86847384 -119.8125 37.6875 C-123.61287224 48.75973834 -125.20258773 59.04059496 -124.8125 70.6875 C-124.79574219 71.38230469 -124.77898437 72.07710938 -124.76171875 72.79296875 C-123.5063575 91.91032723 -112.16316668 110.07144199 -98.5625 122.875 C-81.53326222 137.32315122 -62.66462365 142.09453556 -40.8125 140.6875 C-20.61105629 138.47859462 -3.4253914 129.01935157 9.87109375 113.6953125 C24.20146111 95.08758422 27.77451593 74.77039766 26.1875 51.6875 C23.39042837 32.1788577 10.20026476 15.59845386 -4.8125 3.6875 C-12.56989739 -2.0854469 -20.59814382 -5.48411249 -29.8125 -8.3125 C-30.55757813 -8.56 -31.30265625 -8.8075 -32.0703125 -9.0625 C-47.51656583 -13.42379506 -66.81386444 -10.49532049 -80.8125 -3.3125 Z " fill="#AD7F55" transform="translate(129.8125,15.3125)"/>
<path d="M0 0 C4.22697537 1.56407988 6.56136797 4.73222404 9.3125 8.125 C10.28991807 9.30505748 11.26778208 10.48474574 12.24609375 11.6640625 C12.71772949 12.23672852 13.18936523 12.80939453 13.67529297 13.39941406 C15.37956543 15.45861241 17.11868931 17.48506774 18.875 19.5 C19.36742188 20.0671875 19.85984375 20.634375 20.3671875 21.21875 C25.12435692 26.40838937 30.31557415 31.17622274 35.4375 36 C36.17548828 36.69867188 36.91347656 37.39734375 37.67382812 38.1171875 C41.67788938 41.88990299 45.72773475 45.53343929 50 49 C55.43591976 45.1126747 60.3209361 40.97716555 65.02734375 36.23828125 C65.66056046 35.606978 66.29377716 34.97567474 66.94618225 34.32524109 C68.27541616 32.99735829 69.60216762 31.6669862 70.92651367 30.33422852 C72.92215684 28.32792512 74.92818547 26.33246159 76.93554688 24.33789062 C83.43562603 17.84305306 89.64062043 11.34128024 95.26782227 4.06323242 C97 2 97 2 100 0 C102.64 3.3 105.28 6.6 108 10 C106.19748891 13.60502218 104.43662575 16.06354484 101.875 19.125 C98.15286039 23.60114217 94.50965401 28.12655321 90.921875 32.7109375 C88.74542118 35.30321786 86.42507601 37.63764147 84 40 C83.46407227 40.52513184 82.92814453 41.05026367 82.37597656 41.59130859 C72.48830865 51.22481589 62.12585125 59.83461659 51 68 C46.12885341 65.63318167 42.2208966 62.37017326 38 59 C37.22011719 58.40832031 36.44023438 57.81664062 35.63671875 57.20703125 C22.01776716 46.59568639 9.41522625 33.76214166 -1 20 C-1.62519531 19.24203125 -2.25039063 18.4840625 -2.89453125 17.703125 C-3.75111328 16.64351562 -3.75111328 16.64351562 -4.625 15.5625 C-5.11226562 14.96566406 -5.59953125 14.36882812 -6.1015625 13.75390625 C-7 12 -7 12 -6.83984375 10.04296875 C-5.84347089 7.61923383 -4.55242291 5.81160371 -2.9375 3.75 C-2.38964844 3.04359375 -1.84179688 2.3371875 -1.27734375 1.609375 C-0.85582031 1.07828125 -0.43429688 0.5471875 0 0 Z " fill="#F4F3F2" transform="translate(31,70)"/>
<path d="M0 0 C7.13288102 5.28900701 10.87096916 11.95841042 12.296875 20.703125 C13.0176792 32.05579113 12.38769495 41.93238124 4.94921875 50.953125 C-1.55182792 57.83839429 -9.02710572 60.26466002 -18.39453125 60.98828125 C-29.9606867 61.25671876 -39.8199733 59.55019208 -48.703125 51.703125 C-55.88103931 43.12651646 -58.33773825 33.69119331 -57.45703125 22.60546875 C-55.92689857 11.89453998 -52.52872716 5.41908865 -44.078125 -1.421875 C-30.29425414 -9.07958103 -13.16549285 -8.4226445 0 0 Z M-36.515625 6.578125 C-42.46489503 15.07708219 -42.94152255 25.68250358 -41.171875 35.71484375 C-39.69164819 41.61161684 -38.12492325 47.22232127 -32.984375 50.94921875 C-28.01304152 53.79984449 -23.35911757 54.67046753 -17.703125 53.703125 C-13.21471031 52.28907577 -10.37328851 50.49673968 -7.328125 46.890625 C-2.43491533 37.29240604 -2.30427138 25.70534115 -4.390625 15.26171875 C-6.30030936 9.4133104 -8.45988764 5.95393216 -13.703125 2.703125 C-21.72936196 -0.88306598 -30.47839013 -0.29122142 -36.515625 6.578125 Z " fill="#193A75" transform="translate(509.703125,67.296875)"/>
<path d="M0 0 C0.96035156 0.26683594 1.92070313 0.53367187 2.91015625 0.80859375 C15.30750325 4.40782352 24.89621715 12.0659487 34 21 C34.69867188 21.67417969 35.39734375 22.34835938 36.1171875 23.04296875 C50.05140137 37.49226056 54.66242964 55.67673414 54.54125977 75.2421875 C53.91809073 97.21325643 44.16979316 115.13445949 28.6328125 130.3125 C11.85846692 144.77119518 -9.37161832 149.33554329 -31 148 C-39.13405497 147.07039372 -46.78542883 144.85026337 -54 141 C-54.92167969 140.52949219 -55.84335937 140.05898437 -56.79296875 139.57421875 C-75.96963043 129.17962464 -88.25286551 112.19520521 -94.875 91.625 C-99.71446594 73.63287509 -97.20294109 52.44957048 -87.953125 36.25390625 C-76.63230305 17.6128162 -59.98246186 3.86248649 -38.59765625 -1.4921875 C-25.71135811 -4.01131345 -12.47316041 -4.38554042 0 0 Z M-68 19 C-69.22783203 20.09054688 -69.22783203 20.09054688 -70.48046875 21.203125 C-81.26384842 31.31764148 -91.15599301 46.43768362 -92.17700195 61.63452148 C-92.90072688 80.27929474 -92.90072688 80.27929474 -88 98 C-87.49082031 99.16402344 -86.98164062 100.32804687 -86.45703125 101.52734375 C-78.74683186 118.42891242 -65.9135647 131.29336092 -49 139 C-44.71925627 140.58749982 -40.42531486 141.88421548 -36 143 C-35.36940674 143.1743457 -34.73881348 143.34869141 -34.08911133 143.52832031 C-16.69198061 147.45624558 2.49490109 142.69663619 17.328125 133.49609375 C25.58077771 128.0607407 32.59942865 121.29146542 38 113 C38.50015625 112.26523438 39.0003125 111.53046875 39.515625 110.7734375 C50.00214781 94.51403093 51.79320552 76.23402119 49.57421875 57.3828125 C46.87583316 45.16558202 40.30203219 34.20477744 32 25 C31.40832031 24.31550781 30.81664062 23.63101562 30.20703125 22.92578125 C18.18710332 9.88069955 0.28141497 1.8595296 -17.375 0.796875 C-36.39612522 0.55091217 -53.76609424 6.02596913 -68 19 Z " fill="#EFEBE7" transform="translate(102,8)"/>
<path d="M0 0 C4.41012836 3.56666119 7.15334734 6.82993534 8.64453125 12.421875 C8.64453125 16.051875 8.64453125 19.681875 8.64453125 23.421875 C-6.86546875 23.421875 -22.37546875 23.421875 -38.35546875 23.421875 C-35.83572792 38.01022915 -35.83572792 38.01022915 -27.09375 47.8671875 C-17.12072243 53.2126081 -7.42765989 54.6067806 3.76953125 52.859375 C4.71828125 52.715 5.66703125 52.570625 6.64453125 52.421875 C7.64453125 53.421875 7.64453125 53.421875 7.70703125 55.984375 C7.68640625 56.78875 7.66578125 57.593125 7.64453125 58.421875 C-3.19742481 63.35003685 -19.61476594 63.12913374 -30.875 59.48046875 C-35.28823171 57.59702656 -39.56116059 55.37666162 -43.35546875 52.421875 C-43.35546875 51.761875 -43.35546875 51.101875 -43.35546875 50.421875 C-44.01546875 50.421875 -44.67546875 50.421875 -45.35546875 50.421875 C-46.15378331 49.05072403 -46.94377485 47.67472616 -47.73046875 46.296875 C-48.39175781 45.14832031 -48.39175781 45.14832031 -49.06640625 43.9765625 C-52.09010521 37.98414092 -52.74351055 32.77754734 -52.73046875 26.171875 C-52.72885742 25.32866699 -52.72724609 24.48545898 -52.72558594 23.61669922 C-52.57153702 15.78889965 -50.67021381 10.27978343 -46.66796875 3.609375 C-34.44098812 -7.95668776 -13.87441437 -9.29562754 0 0 Z M-34.23046875 7.234375 C-36.81285438 10.6356066 -36.81285438 10.6356066 -37.35546875 16.421875 C-27.45546875 16.421875 -17.55546875 16.421875 -7.35546875 16.421875 C-8.45353241 8.57964375 -8.45353241 8.57964375 -13.35546875 3.421875 C-20.54290333 -0.63257528 -28.72711006 1.19178232 -34.23046875 7.234375 Z " fill="#1C3C77" transform="translate(654.35546875,66.578125)"/>
<path d="M0 0 C6 15 12 30 18 45 C18.41902588 44.1020874 18.83805176 43.2041748 19.26977539 42.27905273 C29.1348877 21.13952637 29.1348877 21.13952637 39 0 C42.63 0 46.26 0 50 0 C48.56991726 4.56952364 46.77521988 8.8865955 44.76171875 13.22265625 C44.28596405 14.25797485 44.28596405 14.25797485 43.80059814 15.31420898 C42.76580812 17.56499186 41.72684018 19.81381504 40.6875 22.0625 C39.23244448 25.21786366 37.77953479 28.37420778 36.328125 31.53125 C35.9627916 32.32555923 35.59745819 33.11986847 35.22105408 33.93824768 C32.86535282 39.07395076 30.56127852 44.22970541 28.296875 49.40625 C27.72179082 50.71477545 27.14667758 52.02328812 26.5715332 53.33178711 C25.51169218 55.74471611 24.46568751 58.16217606 23.42651367 60.58422852 C18.46998694 71.86245862 11.84664046 84.26617231 0.0625 89.4375 C-4.47836237 91.07165415 -8.20891259 91.35489536 -13 91 C-13 87.7 -13 84.4 -13 81 C-12.27554688 80.90203125 -11.55109375 80.8040625 -10.8046875 80.703125 C-3.48665948 79.57127 1.27687489 78.09111499 6.3125 72.375 C9.03864183 68.5382078 9.15576071 66.42829108 8.55984497 61.71160889 C7.45493174 56.35996212 5.21159051 51.4294757 3.08984375 46.4140625 C2.60294571 45.23532562 2.11604767 44.05658875 1.61439514 42.84213257 C0.32859885 39.73279533 -0.96639079 36.62766864 -2.26702881 33.52453613 C-4.10515025 29.13521552 -5.93010063 24.74045669 -7.75010681 20.34359741 C-8.71795741 18.00733716 -9.69155731 15.67344888 -10.67140198 13.3421936 C-11.10863083 12.29034882 -11.54585968 11.23850403 -11.99633789 10.15478516 C-12.38414932 9.22928864 -12.77196075 8.30379211 -13.17152405 7.35025024 C-14 5 -14 5 -14 2 C-12.4176994 1.66179834 -10.83410625 1.32964061 -9.25 1 C-8.36828125 0.814375 -7.4865625 0.62875 -6.578125 0.4375 C-4 0 -4 0 0 0 Z " fill="#1B3B76" transform="translate(747,61)"/>
<path d="M0 0 C2.35878253 1.13484169 3.74748697 2.46757511 5.52734375 4.3828125 C7.64370682 6.64058067 9.3550316 8.20543773 11.96484375 9.9453125 C11.96484375 10.6053125 11.96484375 11.2653125 11.96484375 11.9453125 C12.79242188 12.28175781 12.79242188 12.28175781 13.63671875 12.625 C16.67696119 14.34916433 18.77910048 16.57047072 21.21484375 19.0703125 C22.106875 19.98039062 22.99890625 20.89046875 23.91796875 21.828125 C24.5934375 22.52679688 25.26890625 23.22546875 25.96484375 23.9453125 C30.56538525 20.18123309 34.79250203 16.16961364 38.96484375 11.9453125 C43.13718547 7.72101136 47.36430225 3.70939191 51.96484375 -0.0546875 C55.41686014 1.42252672 57.61446311 3.38325251 60.21484375 6.0703125 C60.92125 6.79476562 61.62765625 7.51921875 62.35546875 8.265625 C63.15210937 9.09707031 63.15210937 9.09707031 63.96484375 9.9453125 C63.30484375 11.5953125 62.64484375 13.2453125 61.96484375 14.9453125 C61.30484375 14.9453125 60.64484375 14.9453125 59.96484375 14.9453125 C59.73450439 15.50162354 59.50416504 16.05793457 59.2668457 16.63110352 C57.60977534 19.57641946 55.53707088 21.59703311 53.1328125 23.97265625 C52.65918777 24.44345108 52.18556305 24.91424591 51.69758606 25.39930725 C50.1871562 26.8985914 48.66993226 28.3907783 47.15234375 29.8828125 C46.14341857 30.8816954 45.1349503 31.88104001 44.12695312 32.88085938 C42.26085971 34.73068411 40.39169487 36.57718571 38.52026367 38.42163086 C35.9912896 40.91919511 33.47577423 43.42962096 30.96484375 45.9453125 C29.63151042 47.27864583 28.29817708 48.61197917 26.96484375 49.9453125 C23.68475336 48.51229876 21.53507489 46.75062367 19.03125 44.20703125 C18.29970703 43.46904297 17.56816406 42.73105469 16.81445312 41.97070312 C16.05970703 41.19919922 15.30496094 40.42769531 14.52734375 39.6328125 C13.77646484 38.87291016 13.02558594 38.11300781 12.25195312 37.33007812 C10.79532914 35.85551858 9.34090397 34.37878303 7.88891602 32.8996582 C6.34196955 31.32837201 4.78066584 29.77122701 3.21484375 28.21875 C0.86065776 25.84004124 -1.37462001 23.38421154 -3.59765625 20.8828125 C-6.32946627 17.81011804 -9.10111424 14.82612926 -12.03515625 11.9453125 C-10.56889769 8.59710352 -8.69857178 6.25264891 -6.16015625 3.6328125 C-5.14308594 2.55580078 -5.14308594 2.55580078 -4.10546875 1.45703125 C-2.03515625 -0.0546875 -2.03515625 -0.0546875 0 0 Z " fill="#F5F3F2" transform="translate(55.03515625,46.0546875)"/>
<path d="M0 0 C1 1 1 1 1.09765625 3.06640625 C1.08605469 3.89011719 1.07445312 4.71382813 1.0625 5.5625 C1.05347656 6.38878906 1.04445313 7.21507813 1.03515625 8.06640625 C1.02355469 8.70449219 1.01195312 9.34257813 1 10 C-0.33365476 9.7098066 -1.66690215 9.41774108 -3 9.125 C-3.82371094 8.94453125 -4.64742188 8.7640625 -5.49609375 8.578125 C-7.70642651 8.06778296 -9.87776188 7.4830782 -12.0625 6.875 C-18.71289535 5.21240116 -24.54120775 5.84706925 -31 8 C-31.55807958 12.05808901 -31.55807958 12.05808901 -31 16 C-25.68204595 21.00461107 -17.68111531 23.32297122 -10.97851562 25.87304688 C-4.15662861 28.59849811 1.09695557 31.9075528 5 38.25 C6.6523622 44.44635827 6.18361315 49.6327737 3.3125 55.375 C-2.38716287 61.84488758 -9.57016805 64.51263848 -18.06787109 65.15673828 C-27.53985799 65.57037124 -36.71591565 65.03885774 -46 63 C-46 61.02 -46 59.04 -46 57 C-44.83597656 57.02356567 -44.83597656 57.02356567 -43.6484375 57.04760742 C-40.09903381 57.11034673 -36.54974724 57.14911447 -33 57.1875 C-31.77925781 57.21263672 -30.55851562 57.23777344 -29.30078125 57.26367188 C-22.49452595 57.31885773 -17.10458657 57.14767745 -11 54 C-8.67250655 50.50875983 -8.49700684 49.10777749 -9 45 C-12.00555028 41.24676356 -15.68777901 39.50742295 -20 37.625 C-21.34155307 37.01521806 -22.68269355 36.40452766 -24.0234375 35.79296875 C-25.34878585 35.1949301 -26.67430072 34.59726032 -28 34 C-42.21931736 27.56136529 -42.21931736 27.56136529 -46 20 C-46.60357551 13.96424494 -45.25797471 9.95731699 -42 5 C-32.76454675 -5.67849282 -12.16028985 -2.87234433 0 0 Z " fill="#1C3C77" transform="translate(368,63)"/>
<path d="M0 0 C5.5796641 10.37260767 10.96527156 20.81834445 16.0625 31.4375 C16.53921143 32.42564697 17.01592285 33.41379395 17.50708008 34.43188477 C18.17066528 35.82491821 18.17066528 35.82491821 18.84765625 37.24609375 C19.23961182 38.06779053 19.63156738 38.8894873 20.03540039 39.73608398 C20.92338324 41.8201804 21.52557126 43.78948534 22 46 C22.66 46 23.32 46 24 46 C24.13946045 45.00009033 24.13946045 45.00009033 24.28173828 43.97998047 C25.1976075 40.18015051 26.80403816 36.82307666 28.4921875 33.3203125 C28.83879425 32.58932343 29.185401 31.85833435 29.54251099 31.10519409 C30.64811635 28.77593494 31.76123383 26.45036641 32.875 24.125 C33.98013702 21.80609519 35.08368162 19.486444 36.18606567 17.16622925 C36.87088564 15.72612254 37.55752266 14.28687796 38.24630737 12.84866333 C40.27067351 8.60646947 42.17523282 4.33197333 44 0 C47.63 0 51.26 0 55 0 C54.17517581 3.29929675 53.25555707 5.83460385 51.83984375 8.8828125 C51.38327393 9.86967041 50.9267041 10.85652832 50.45629883 11.87329102 C49.95509521 12.94635498 49.4538916 14.01941895 48.9375 15.125 C48.41889404 16.24124756 47.90028809 17.35749512 47.3659668 18.50756836 C45.90702307 21.64270901 44.44413904 24.77594313 42.9786377 27.90802002 C41.94550188 30.11649764 40.91362242 32.32555966 39.88183594 34.53466797 C38.05602447 38.44240515 36.22691062 42.34858151 34.39529419 46.25360107 C33.67294547 47.79390319 32.95116472 49.33447179 32.22994995 50.87530518 C31.21413629 53.04423386 30.19540351 55.21176591 29.17578125 57.37890625 C28.86901459 58.03499374 28.56224792 58.69108124 28.2461853 59.36705017 C26.11454048 63.88545952 26.11454048 63.88545952 25 65 C23.48071962 65.07179964 21.95832518 65.08392007 20.4375 65.0625 C19.19806641 65.04896484 19.19806641 65.04896484 17.93359375 65.03515625 C16.97646484 65.01775391 16.97646484 65.01775391 16 65 C9.06965069 52.11646561 2.58197607 39.07005986 -3.65527344 25.83789062 C-4.9878896 23.02555761 -6.33859417 20.22264979 -7.6953125 17.421875 C-8.11611084 16.54853516 -8.53690918 15.67519531 -8.97045898 14.77539062 C-9.76270448 13.13146136 -10.55889189 11.48942407 -11.35961914 9.84960938 C-14 4.33861375 -14 4.33861375 -14 1 C-9.2702137 0.22778999 -4.78736372 -0.04597708 0 0 Z " fill="#1A3A76" transform="translate(542,63)"/>
<path d="M0 0 C1 1 1 1 1.09765625 3.28515625 C1.08605469 4.20167969 1.07445312 5.11820312 1.0625 6.0625 C1.05347656 6.98160156 1.04445313 7.90070313 1.03515625 8.84765625 C1.02355469 9.55792969 1.01195312 10.26820312 1 11 C-0.7015625 10.45859375 -0.7015625 10.45859375 -2.4375 9.90625 C-3.95815225 9.43691289 -5.478996 8.96819591 -7 8.5 C-7.74378906 8.26152344 -8.48757813 8.02304688 -9.25390625 7.77734375 C-17.37396531 5.30602143 -23.89353871 5.31291763 -31.79296875 8.72265625 C-35.9748465 11.14296426 -37.52440251 14.57320754 -39 19 C-39.14961464 21.90885382 -39.23118311 24.77793858 -39.25 27.6875 C-39.270625 28.46544922 -39.29125 29.24339844 -39.3125 30.04492188 C-39.35537009 36.4700762 -38.32591843 42.01337033 -34.30859375 47.171875 C-25.58848815 54.5266196 -16.48592922 57.20305462 -5.1875 57.0625 C-4.49462891 57.05798828 -3.80175781 57.05347656 -3.08789062 57.04882812 C-1.39188932 57.03713156 0.30406703 57.01919924 2 57 C2 58.98 2 60.96 2 63 C-12.31197973 66.93843177 -28.51172639 66.47603306 -41.875 59.75 C-48.79123848 55.522715 -52.7684664 50.04743217 -55.30859375 42.36328125 C-57.22480274 33.04206123 -57.94525989 20.47007278 -53 12 C-47.88425225 4.48878306 -41.40036888 0.26537513 -32.5078125 -1.6875 C-21.7568398 -3.02718507 -10.57819562 -2.17926737 0 0 Z " fill="#1B3B76" transform="translate(441,63)"/>
<path d="M0 0 C0.625 2.0625 0.625 2.0625 1 4 C1.47566406 3.71125 1.95132813 3.4225 2.44140625 3.125 C10.43213316 -1.1131756 19.80803211 -1.53705716 28.45703125 1.0234375 C29.71580078 1.50683594 29.71580078 1.50683594 31 2 C31.66 5.3 32.32 8.6 33 12 C32.04480469 11.77183594 31.08960938 11.54367188 30.10546875 11.30859375 C19.47363084 8.89383498 11.02036022 7.85443285 1 13 C0.98969254 13.63671127 0.97938507 14.27342255 0.96876526 14.9294281 C0.86093669 21.53126798 0.74632039 28.13296478 0.62768555 34.73461914 C0.58426057 37.20138569 0.54259128 39.66818378 0.50268555 42.13500977 C0.44516555 45.67213466 0.38141925 49.20909966 0.31640625 52.74609375 C0.29969376 53.85649521 0.28298126 54.96689667 0.26576233 56.11094666 C0.24581711 57.13192947 0.22587189 58.15291229 0.20532227 59.20483398 C0.18977798 60.10862289 0.1742337 61.0124118 0.15821838 61.94358826 C0 64 0 64 -1 65 C-5.62 65 -10.24 65 -15 65 C-15 43.88 -15 22.76 -15 1 C-2 -1 -2 -1 0 0 Z " fill="#1C3C77" transform="translate(692,62)"/>
<path d="M0 0 C0 21.78 0 43.56 0 66 C-4.62 66 -9.24 66 -14 66 C-14 44.88 -14 23.76 -14 2 C-4 0 -4 0 0 0 Z " fill="#153773" transform="translate(305,61)"/>
<path d="M0 0 C3.58513106 1.62184501 6.58992323 3.79256239 9.75 6.125 C11.22726563 7.21167969 11.22726563 7.21167969 12.734375 8.3203125 C13.48203125 8.87460937 14.2296875 9.42890625 15 10 C13.44533803 14.08332902 10.74912156 16.08208993 7.375 18.75 C6.37210938 19.54921875 5.36921875 20.3484375 4.3359375 21.171875 C3.56507812 21.77515625 2.79421875 22.3784375 2 23 C-1.71045247 21.42219077 -4.29906384 19.09296752 -7.25 16.375 C-8.14203125 15.55773438 -9.0340625 14.74046875 -9.953125 13.8984375 C-10.62859375 13.27195312 -11.3040625 12.64546875 -12 12 C-10.47940093 8.11985064 -8.13921469 6.26093438 -4.875 3.75 C-3.96492188 3.04359375 -3.05484375 2.3371875 -2.1171875 1.609375 C-1.41851562 1.07828125 -0.71984375 0.5471875 0 0 Z " fill="#F3F2F0" transform="translate(80,23)"/>
<path d="M0 0 C2.76620499 1.74391184 4.50702369 2.98118228 5.9375 5.9375 C6.0488234 9.61117225 4.8063271 12.06466057 2.4375 14.8125 C-1.34454453 16.65503452 -4.87794124 16.64659745 -9 16 C-12.88944224 13.97424883 -13.76032291 12.73234666 -15.125 8.5625 C-15 5 -15 5 -12.75 2.125 C-8.24910452 -1.35296469 -5.44247648 -1.21986542 0 0 Z " fill="#1C3C77" transform="translate(302,34)"/>
<path d="M0 0 C0.66 0.33 1.32 0.66 2 1 C-0.97 3.97 -3.94 6.94 -7 10 C-7 7 -7 7 -4.625 4.4375 C-3.75875 3.633125 -2.8925 2.82875 -2 2 C-1.34 1.34 -0.68 0.68 0 0 Z " fill="#344E84" transform="translate(465,66)"/>
</svg>
