<?xml version="1.0" encoding="UTF-8"?>
<svg version="1.1" xmlns="http://www.w3.org/2000/svg" width="986" height="314">
<path d="M0 0 C2.18672561 0.94969956 2.18672561 0.94969956 4.890625 1.203125 C9.080329 2.01582662 12.39180279 3.70121146 16.1328125 5.70703125 C16.87756836 6.10559326 17.62232422 6.50415527 18.38964844 6.91479492 C30.4978829 13.60272272 40.66524147 22.84705202 50.60546875 32.37207031 C52.07220867 33.77410112 53.55532192 35.15894192 55.0390625 36.54296875 C71.12747624 51.95349989 82.96871324 72.11780963 84.30981445 94.82958984 C84.85171347 122.69313051 84.85171347 122.69313051 80.1328125 135.83203125 C79.75898437 136.8890625 79.38515625 137.94609375 79 139.03515625 C67.8498177 167.83364034 43.9377527 189.53075972 16.1328125 201.83203125 C14.49892578 202.55519531 14.49892578 202.55519531 12.83203125 203.29296875 C-0.57393563 208.80227021 -15.1000968 211.9554961 -29.58984375 212.03515625 C-30.82365028 212.04370636 -30.82365028 212.04370636 -32.0823822 212.0524292 C-33.81784805 212.06183201 -35.55333136 212.06839429 -37.28881836 212.07226562 C-39.89795522 212.08191391 -42.50628372 212.11295843 -45.11523438 212.14453125 C-61.98184989 212.25076974 -78.84252483 210.60509621 -91.59765625 198.47265625 C-102.19647893 186.14080748 -101.86057873 171.20690366 -100.8671875 155.83203125 C-100.43876528 152.4898579 -99.8258002 149.2361388 -99.0546875 145.95703125 C-98.8894458 145.24450195 -98.7242041 144.53197266 -98.55395508 143.79785156 C-98.03515625 141.83984375 -98.03515625 141.83984375 -96.8671875 138.83203125 C-93.8671875 137.83203125 -93.8671875 137.83203125 -90.92578125 139.2734375 C-89.71647646 139.97657301 -88.50961511 140.68392089 -87.3046875 141.39453125 C-64.16035297 154.26662451 -37.62042297 158.05157858 -12.01879883 151.11645508 C12.01524376 144.0481939 34.17913838 129.07390256 46.5625 106.97265625 C54.32041189 91.45683246 57.16329741 71.64581395 52.22265625 54.8203125 C47.30369248 41.3328312 39.68915323 29.55143635 28.1328125 20.83203125 C28.76896484 21.50685547 28.76896484 21.50685547 29.41796875 22.1953125 C44.98970115 39.27288276 50.24819601 57.500946 49.32373047 80.12158203 C48.06468005 97.99623388 39.33723762 114.83098944 26.0078125 126.67578125 C6.70715569 143.0184937 -18.58610581 151.66504579 -43.8671875 149.83203125 C-61.25498021 148.15853038 -76.85756377 142.65507963 -91.8671875 133.83203125 C-91.8671875 133.17203125 -91.8671875 132.51203125 -91.8671875 131.83203125 C-83.33525787 130.16800242 -78.44440777 131.07708968 -70.90234375 135.26171875 C-58.54984829 141.65258513 -41.08740394 141.94246357 -27.8046875 138.26953125 C-12.59335672 132.7186615 -0.73270637 122.0849123 6.23046875 107.5390625 C10.83937642 95.0842934 9.13471778 78.81812766 3.84375 66.9375 C-3.74814714 52.09879195 -15.3123136 44.27623711 -30.8671875 38.83203125 C-31.76953125 38.51105469 -32.671875 38.19007812 -33.6015625 37.859375 C-56.67074311 31.1568428 -81.96837673 36.00285673 -102.8671875 46.83203125 C-110.46850344 51.07417979 -117.19280839 56.27196328 -123.8671875 61.83203125 C-124.48207031 62.3115625 -125.09695313 62.79109375 -125.73046875 63.28515625 C-131.28826959 67.73139692 -135.51990545 73.234058 -139.8671875 78.83203125 C-140.53878906 79.67636719 -141.21039062 80.52070312 -141.90234375 81.390625 C-161.61832627 107.14291231 -169.06666005 138.66465034 -165.04248047 170.63452148 C-159.78959076 206.97702425 -141.67021585 240.8746781 -112.22290039 263.29492188 C-109.15606662 265.55259866 -106.03188617 267.71425391 -102.8671875 269.83203125 C-101.42472656 270.80076172 -101.42472656 270.80076172 -99.953125 271.7890625 C-73.72461108 288.15417753 -41.89286147 293.32909554 -11.74389648 286.66894531 C5.79906279 282.37330173 29.67222405 273.52291392 40.1328125 257.83203125 C39.70613281 258.24453125 39.27945313 258.65703125 38.83984375 259.08203125 C16.70252203 279.53052637 -14.11770286 287.81551511 -43.671875 287.14453125 C-68.97679959 286.00080585 -92.72502442 275.04543736 -111.8671875 258.83203125 C-112.63458252 258.18427734 -112.63458252 258.18427734 -113.41748047 257.5234375 C-140.24084437 234.58788752 -158.02108543 201.17878282 -160.8671875 165.83203125 C-161.60134744 151.72126441 -161.94823198 137.47657997 -157.8671875 123.83203125 C-157.66851074 123.1659082 -157.46983398 122.49978516 -157.26513672 121.81347656 C-147.92637366 91.29985524 -127.09012683 64.96654502 -98.82910156 49.82519531 C-77.48057361 39.01810078 -52.66772825 36.68872299 -29.66503906 43.48242188 C-22.43653052 45.91990316 -15.76800685 48.93866886 -9.8671875 53.83203125 C-13.53065218 55.14353412 -15.98729516 54.49033232 -19.6796875 53.45703125 C-41.12338767 47.52048295 -64.96760216 51.00732459 -84.40625 61.71875 C-108.82392411 76.27214124 -125.96312252 97.7298425 -133.125 125.36328125 C-138.96792583 152.67127142 -135.34759497 181.30657669 -120.0546875 205.08203125 C-116.09360123 210.75908429 -111.64060021 215.8308961 -106.8671875 220.83203125 C-106.33996094 221.43402344 -105.81273437 222.03601563 -105.26953125 222.65625 C-91.92041166 237.30272649 -69.68957368 247.04769983 -50.12109375 248.73828125 C-49.37730469 248.76921875 -48.63351562 248.80015625 -47.8671875 248.83203125 C-46.72121094 248.88359375 -45.57523438 248.93515625 -44.39453125 248.98828125 C-20.30348056 249.7086216 2.13242099 241.78735214 19.8671875 225.2109375 C20.97944688 224.1080511 22.06151541 222.97474814 23.1328125 221.83203125 C28.11295713 223.42451936 31.79669954 226.37304173 35.8828125 229.51953125 C36.59002441 230.05755371 37.29723633 230.59557617 38.02587891 231.14990234 C40.06610473 232.70473866 42.10020962 234.26724967 44.1328125 235.83203125 C45.11507812 236.58355469 46.09734375 237.33507812 47.109375 238.109375 C52.77376995 242.4729887 52.77376995 242.4729887 55.1328125 244.83203125 C54.93207848 249.55764474 52.34880223 252.84626232 49.6328125 256.51953125 C49.18284912 257.13530029 48.73288574 257.75106934 48.26928711 258.38549805 C30.62330681 282.19750132 5.59699676 297.46700634 -23.66259766 302.24462891 C-61.15263586 307.78792937 -102.6035859 299.7229819 -133.44970703 276.95141602 C-135.98726615 274.9839778 -138.43648445 272.929575 -140.8671875 270.83203125 C-141.77855469 270.04699219 -142.68992187 269.26195312 -143.62890625 268.453125 C-146.08234294 266.28573922 -148.48356158 264.07569337 -150.8671875 261.83203125 C-151.46789062 261.28417969 -152.06859375 260.73632812 -152.6875 260.171875 C-175.04228144 239.01281443 -188.60930814 207.50955004 -194.8671875 177.83203125 C-195.08117187 176.81753906 -195.29515625 175.80304688 -195.515625 174.7578125 C-202.81815164 134.27641483 -193.61003931 92.29201138 -170.58862305 58.34887695 C-164.92925598 50.21607014 -158.78434071 42.91985442 -151.8671875 35.83203125 C-150.61228516 34.46691406 -150.61228516 34.46691406 -149.33203125 33.07421875 C-113.34146064 -5.03344425 -48.51487565 -23.876929 0 0 Z " fill="#F6F6F6" transform="translate(901.8671875,10.16796875)"/>
<path d="M0 0 C5.83969665 4.51791002 8.19385798 9.52174727 9.79296875 16.62890625 C11.01148158 28.2817368 8.227207 39.75153782 6.04296875 51.12890625 C5.69034394 53.01152008 5.33877595 54.89433218 4.98828125 56.77734375 C4.11650839 61.4445697 3.23093765 66.10902894 2.33911133 70.77246094 C1.76925657 73.75292612 1.20174909 76.73383109 0.63476562 79.71484375 C-0.31098868 84.68648701 -1.25851062 89.65779005 -2.20703125 94.62890625 C-8.14703125 94.62890625 -14.08703125 94.62890625 -20.20703125 94.62890625 C-19.09563592 86.05528515 -17.6797792 77.59978207 -16.04296875 69.11328125 C-15.8451178 68.08432739 -15.64726685 67.05537354 -15.44342041 65.99523926 C-14.6158492 61.70297262 -13.78482382 57.4114455 -12.94238281 53.12207031 C-12.32177738 49.95401826 -11.71283756 46.78389384 -11.10546875 43.61328125 C-10.91487885 42.65887146 -10.72428894 41.70446167 -10.52792358 40.72113037 C-8.84734277 31.86941548 -7.73689113 23.74138277 -12.20703125 15.62890625 C-14.22642989 13.10465795 -15.05203721 12.68057093 -18.20703125 11.62890625 C-26.28330646 10.93267563 -32.42381236 13.2454655 -38.83203125 18.19140625 C-49.26252937 27.79908086 -53.32620623 41.50199736 -55.78515625 54.98046875 C-56.00145691 56.12051361 -56.21775757 57.26055847 -56.44061279 58.43515015 C-57.12226422 62.03968897 -57.78986217 65.64666187 -58.45703125 69.25390625 C-58.91964279 71.71371678 -59.38317551 74.17335425 -59.84765625 76.6328125 C-60.9781061 82.62956259 -62.09596899 88.62853515 -63.20703125 94.62890625 C-69.14703125 94.62890625 -75.08703125 94.62890625 -81.20703125 94.62890625 C-79.86973674 85.61098739 -78.33462645 76.64649655 -76.64915466 67.68804932 C-76.22638675 65.44067683 -75.80631065 63.19281449 -75.38684082 60.94482422 C-74.34549681 55.36704928 -73.29973594 49.7901044 -72.25408936 44.21313477 C-71.36659717 39.47872423 -70.48084191 34.74399477 -69.59727478 30.0088501 C-69.18798977 27.8192205 -68.77625266 25.63006202 -68.36437988 23.44091797 C-66.96840078 15.98036156 -65.69247569 8.52078 -64.63781738 1.00341797 C-64.20703125 -1.37109375 -64.20703125 -1.37109375 -63.20703125 -2.37109375 C-60.67425475 -2.44429538 -58.17599207 -2.46336944 -55.64453125 -2.43359375 C-53.19015625 -2.41296875 -50.73578125 -2.39234375 -48.20703125 -2.37109375 C-48.53703125 2.90890625 -48.86703125 8.18890625 -49.20703125 13.62890625 C-48.09328125 12.26765625 -46.97953125 10.90640625 -45.83203125 9.50390625 C-34.52582212 -3.11144288 -15.25344397 -9.47603334 0 0 Z " fill="#F0F0F0" transform="translate(169.20703125,92.37109375)"/>
<path d="M0 0 C4.96101635 4.38415398 7.6164427 9.68472342 8.25390625 16.2265625 C8.47490114 24.20564123 7.34239254 30.69448816 2.203125 37.0078125 C-10.45715462 49.43536639 -30.22726866 51.04561701 -47.109375 50.96875 C-50.06932534 50.93124128 -53.02520412 50.86465043 -55.984375 50.78125 C-55.22360886 63.05438077 -55.22360886 63.05438077 -49.984375 73.78125 C-42.54085505 79.86165622 -35.36568326 80.42784561 -25.984375 79.78125 C-19.41753151 78.52006814 -13.18688801 76.23884949 -6.984375 73.78125 C-6.48150566 75.7388485 -5.9821651 77.69735377 -5.484375 79.65625 C-5.2059375 80.74679688 -4.9275 81.83734375 -4.640625 82.9609375 C-3.984375 85.78125 -3.984375 85.78125 -3.984375 87.78125 C-5.79251375 88.58282758 -7.60617873 89.37194175 -9.421875 90.15625 C-10.43121094 90.59710938 -11.44054688 91.03796875 -12.48046875 91.4921875 C-24.88771961 96.05672795 -42.32621139 97.82047463 -54.62890625 92.2265625 C-64.01838029 86.46519369 -69.47963712 79.50614405 -72.51977539 68.91625977 C-76.3239319 51.43473131 -71.60725467 33.90038989 -62.92578125 18.75 C-54.35517098 5.64403662 -43.02306861 -2.32946353 -27.859375 -5.96875 C-17.49157288 -6.87029801 -8.68760324 -6.19675196 0 0 Z M-43.984375 18.78125 C-50.59395901 26.90770029 -50.59395901 26.90770029 -52.984375 36.78125 C-31.79306457 37.81142795 -31.79306457 37.81142795 -13.046875 29.21875 C-9.94704078 26.15979272 -9.10525135 23.84899105 -8.609375 19.46875 C-9.09318533 14.71128175 -10.52226208 13.01757295 -13.984375 9.78125 C-25.46725143 4.28943953 -36.04341576 10.25924496 -43.984375 18.78125 Z " fill="#EFEFEF" transform="translate(72.984375,94.21875)"/>
<path d="M0 0 C4.96101635 4.38415398 7.6164427 9.68472342 8.25390625 16.2265625 C8.47490114 24.20564123 7.34239254 30.69448816 2.203125 37.0078125 C-10.45715462 49.43536639 -30.22726866 51.04561701 -47.109375 50.96875 C-50.06932534 50.93124128 -53.02520412 50.86465043 -55.984375 50.78125 C-55.72729765 53.15845939 -55.45420432 55.53201606 -55.171875 57.90625 C-55.10162109 58.57140625 -55.03136719 59.2365625 -54.95898438 59.921875 C-54.07877815 67.10435782 -51.58780281 72.17398713 -45.984375 76.78125 C-36.76677958 81.47090381 -27.22967408 80.60084406 -17.54296875 77.6484375 C-13.98500603 76.44253258 -10.4773032 75.16524042 -6.984375 73.78125 C-5.21822382 78.49098649 -4.49842669 82.81208364 -3.984375 87.78125 C-5.79251375 88.58282758 -7.60617873 89.37194175 -9.421875 90.15625 C-10.43121094 90.59710938 -11.44054687 91.03796875 -12.48046875 91.4921875 C-24.95524386 96.08156965 -42.34401744 97.79539101 -54.69921875 92.15625 C-63.95747715 86.58546888 -69.69005032 78.98733153 -72.62109375 68.50390625 C-75.39293207 47.7300212 -70.84045353 29.22040352 -58.109375 12.40625 C-44.164033 -4.14043464 -19.1432843 -13.65465034 0 0 Z M-45.7109375 21.0234375 C-50.96974821 28.33069051 -50.96974821 28.33069051 -52.984375 36.78125 C-38.77421379 37.33729979 -23.90558204 37.71779173 -11.984375 28.78125 C-9.12409464 25.34891357 -8.38811218 22.26865619 -8.56640625 17.77734375 C-9.34434218 14.06215443 -11.22415391 12.35745635 -13.984375 9.78125 C-25.56871489 2.89326412 -38.63051267 11.82849665 -45.7109375 21.0234375 Z " fill="#EFEFEF" transform="translate(328.984375,94.21875)"/>
<path d="M0 0 C5.78945694 5.24575142 7.93058542 11.18595461 8.55859375 18.84765625 C8.31428291 26.26320892 6.21012007 33.10029053 1.02734375 38.51171875 C-14.4455904 51.74514927 -36.58074578 51.40664913 -55.75390625 51.03515625 C-55.0428152 64.81966448 -55.0428152 64.81966448 -47.75390625 76.03515625 C-41.01227667 80.41361674 -33.58439593 81.00094821 -25.75390625 80.03515625 C-19.2251839 78.55981667 -12.93554481 76.60024739 -6.75390625 74.03515625 C-5.41806726 78.87757258 -4.50062506 82.96953242 -4.75390625 88.03515625 C-18.03611255 95.58778336 -34.255177 97.22539039 -49.19921875 94.37890625 C-57.98848257 91.53892128 -65.39781294 85.20076082 -69.75390625 77.03515625 C-76.27276864 61.62445647 -74.06152891 44.57691218 -68.2265625 29.3515625 C-61.96372387 15.24771636 -51.64574284 3.09432064 -37.265625 -3.0234375 C-25.04269131 -7.31687135 -11.00595482 -7.85247556 0 0 Z M-42.75390625 17.03515625 C-50.02332371 26.0932683 -50.02332371 26.0932683 -52.75390625 37.03515625 C-32.2356344 37.85045349 -32.2356344 37.85045349 -13.75390625 30.03515625 C-10.0526842 26.07791707 -10.0526842 26.07791707 -8.6640625 21.046875 C-8.93047888 16.40490965 -8.93047888 16.40490965 -11.01953125 12.3671875 C-13.68822501 10.06914565 -16.23356571 8.35518721 -19.75390625 8.03515625 C-20.78515625 7.93203125 -21.81640625 7.82890625 -22.87890625 7.72265625 C-30.36845756 8.32665232 -37.67754216 11.35183558 -42.75390625 17.03515625 Z " fill="#F0F0F0" transform="translate(463.75390625,93.96484375)"/>
<path d="M0 0 C0.94746094 -0.020625 1.89492188 -0.04125 2.87109375 -0.0625 C9.52350671 -0.09890171 15.12397807 0.9859041 21.375 3.25 C20.68704289 6.90393562 19.73466383 10.12178106 18.3125 13.5625 C17.95027344 14.44550781 17.58804688 15.32851562 17.21484375 16.23828125 C16.79912109 17.23408203 16.79912109 17.23408203 16.375 18.25 C15.23224609 17.92515625 15.23224609 17.92515625 14.06640625 17.59375 C2.83181833 14.5641982 -6.11826096 14.05805098 -16.7890625 19.31640625 C-27.55601078 25.61444743 -34.17592755 35.11438263 -37.765625 47.0390625 C-40.2349342 58.06116085 -40.70517496 68.3438646 -34.625 78.25 C-30.66199444 82.67924151 -25.36619287 84.29574178 -19.625 85.25 C-10.71689504 85.54023901 -2.87526364 83.44604808 5.375 80.25 C5.71276684 81.9991497 6.04503671 83.74936145 6.375 85.5 C6.560625 86.47453125 6.74625 87.4490625 6.9375 88.453125 C7.375 91.25 7.375 91.25 7.375 95.25 C5.48046779 95.89964023 3.58431351 96.54455115 1.6875 97.1875 C0.10388672 97.72697266 0.10388672 97.72697266 -1.51171875 98.27734375 C-12.65853767 101.75985054 -28.48435193 102.58598521 -39.26953125 97.69921875 C-48.46682327 92.04052001 -54.34564527 85.08905066 -57.36328125 74.7109375 C-60.95978816 58.90587991 -57.37149202 41.00674585 -48.8046875 27.34765625 C-36.80494935 10.19508937 -21.10170194 0.11209403 0 0 Z " fill="#EFEFEF" transform="translate(538.625,88.75)"/>
<path d="M0 0 C-0.63948081 7.54587353 -2.21767261 14.63821297 -4 22 C3.59 22 11.18 22 19 22 C17.125 33.75 17.125 33.75 16 36 C8.41 36 0.82 36 -7 36 C-7.33 38.97 -7.66 41.94 -8 45 C-8.25197238 46.57182334 -8.52354213 48.14092191 -8.83203125 49.70263672 C-8.98889404 50.50732391 -9.14575684 51.31201111 -9.30737305 52.14108276 C-9.47406494 52.97882233 -9.64075684 53.81656189 -9.8125 54.6796875 C-10.16936052 56.51430547 -10.5261285 58.34894145 -10.8828125 60.18359375 C-11.44052662 63.02950403 -12.0000102 65.87505168 -12.56152344 68.72021484 C-17.34133588 86.56631017 -17.34133588 86.56631017 -15 104 C-12.23547967 105.38226016 -9.9538637 105.09525387 -6.875 105.0625 C-3.966875 105.0315625 -3.966875 105.0315625 -1 105 C-1 109.62 -1 114.24 -1 119 C-7.80134492 122.40067246 -17.354835 122.21894401 -24.75390625 120.27734375 C-28.82949405 118.36715364 -31.59033727 115.75907385 -34 112 C-38.99057475 97.02827574 -33.15843628 78.30044413 -30.0625 63.5 C-29.58755214 61.15527963 -29.11423456 58.81022843 -28.64257812 56.46484375 C-27.78186973 52.21476134 -26.91691088 47.96571331 -26.03149414 43.72070312 C-25.85606583 42.87866333 -25.68063751 42.03662354 -25.49989319 41.16906738 C-25 39 -25 39 -24 36 C-28.62 36 -33.24 36 -38 36 C-36.125 24.25 -36.125 24.25 -35 22 C-30.38 22 -25.76 22 -21 22 C-20.87625 20.494375 -20.7525 18.98875 -20.625 17.4375 C-19.65246189 8.52046229 -19.65246189 8.52046229 -18 5 C-15.46472817 3.47300869 -12.84578605 2.75392093 -10 2 C-8.9275 1.608125 -7.855 1.21625 -6.75 0.8125 C-4 0 -4 0 0 0 Z " fill="#F0F0F0" transform="translate(607,68)"/>
<path d="M0 0 C-0.28614586 2.16740269 -0.57920803 4.33389266 -0.875 6.5 C-1.03742188 7.7065625 -1.19984375 8.913125 -1.3671875 10.15625 C-2.02417074 14.14681488 -3.01911699 18.07646797 -4 22 C3.59 22 11.18 22 19 22 C17.125 33.75 17.125 33.75 16 36 C8.41 36 0.82 36 -7 36 C-7.25652344 37.93746094 -7.51304687 39.87492187 -7.77734375 41.87109375 C-8.5877371 47.5481312 -9.56563394 53.16270025 -10.69140625 58.78515625 C-10.84257904 59.54114105 -10.99375183 60.29712585 -11.14950562 61.07601929 C-11.77508936 64.18770504 -12.40568385 67.29830969 -13.04370117 70.4074707 C-17.54862592 87.46468031 -17.54862592 87.46468031 -15 104 C-12.23547967 105.38226016 -9.9538637 105.09525387 -6.875 105.0625 C-5.77929688 105.05347656 -4.68359375 105.04445313 -3.5546875 105.03515625 C-2.71164063 105.02355469 -1.86859375 105.01195312 -1 105 C-0.97306425 107.12493141 -0.95363372 109.24995912 -0.9375 111.375 C-0.92589844 112.55835938 -0.91429687 113.74171875 -0.90234375 114.9609375 C-1 118 -1 118 -2 120 C-8.26542237 122.40381304 -18.30570586 121.9880089 -24.6875 120.28125 C-28.79366055 118.35259883 -31.56954406 115.79151126 -34 112 C-39.03536254 96.89391237 -33.11794574 77.88525034 -30.0625 62.9375 C-29.58761045 60.53611965 -29.11429285 58.13442789 -28.64257812 55.73242188 C-27.78134044 51.38607124 -26.91839692 47.04016788 -26.03149414 42.69897461 C-25.76835167 41.40593666 -25.76835167 41.40593666 -25.49989319 40.08677673 C-25 38 -25 38 -24 36 C-28.62 36 -33.24 36 -38 36 C-36.125 24.25 -36.125 24.25 -35 22 C-30.38 22 -25.76 22 -21 22 C-20.87625 20.494375 -20.7525 18.98875 -20.625 17.4375 C-19.65246189 8.52046229 -19.65246189 8.52046229 -18 5 C-15.46472817 3.47300869 -12.84578605 2.75392093 -10 2 C-8.9275 1.608125 -7.855 1.21625 -6.75 0.8125 C-4 0 -4 0 0 0 Z " fill="#F1F1F1" transform="translate(237,68)"/>
<path d="M0 0 C5.94 0 11.88 0 18 0 C15.94046246 10.93805988 13.87798137 21.87556102 11.8125 32.8125 C11.65734673 33.63406334 11.50219345 34.45562668 11.34233856 35.30208588 C6.50283065 60.92267334 1.60176958 86.53071917 -3.375 112.125 C-3.51846737 112.86282841 -3.66193474 113.60065681 -3.8097496 114.36084366 C-5.53677032 123.24116007 -7.26703501 132.12084154 -9 141 C-14.94 141 -20.88 141 -27 141 C-20.47812516 105.67250583 -13.91733987 70.35283645 -7.17995834 35.0657196 C-6.74955379 32.8101616 -6.31994691 30.55445293 -5.89053345 28.29870605 C-5.21623226 24.75751406 -4.53970982 21.21675387 -3.86131477 17.67634392 C-3.49406508 15.75765682 -3.12865278 13.83861831 -2.76329041 11.91957092 C-2.54459793 10.78184738 -2.32590546 9.64412384 -2.10058594 8.47192383 C-1.91107361 7.48170731 -1.72156128 6.49149078 -1.52630615 5.4712677 C-1 3 -1 3 0 0 Z " fill="#F1F1F1" transform="translate(371,46)"/>
<path d="M0 0 C0.34639124 6.69689737 -0.94012626 12.9506313 -2.25 19.5 C-2.45496094 20.60214844 -2.65992188 21.70429688 -2.87109375 22.83984375 C-4.25044679 29.8034867 -5.6242408 35.931128 -11.0625 40.875 C-15.80809695 43.63050791 -20.67389386 43.36468561 -26 43 C-29.125 42 -29.125 42 -31 41 C-30.34 39.35 -29.68 37.7 -29 36 C-28.26394531 36.11859375 -27.52789062 36.2371875 -26.76953125 36.359375 C-20.661612 37.26198499 -20.661612 37.26198499 -14.9375 35.4375 C-12.76750005 32.70750006 -11.84201318 30.36805274 -11 27 C-11.495 27.495 -11.99 27.99 -12.5 28.5 C-15.94631332 30.56778799 -19.12650637 30.7147518 -23 30 C-25.8100346 28.20636089 -27.50940468 26.98119065 -29 24 C-30.02788062 16.36431541 -28.51432916 10.25146072 -24 4 C-17.84878725 -2.45587187 -8.12893051 -2.7096435 0 0 Z M-18.70703125 7.44921875 C-21.97358684 11.36711171 -23.06054268 14.76896545 -22.8125 19.8125 C-22.27122371 23.06913546 -22.27122371 23.06913546 -20 25 C-15.80881889 25 -14.30799514 24.29399536 -11.25 21.375 C-7.29844055 16.05119483 -6.7350248 10.49189241 -7 4 C-12.03411342 3.49658866 -14.9450216 3.8687538 -18.70703125 7.44921875 Z " fill="#D8D8D8" transform="translate(339,225)"/>
<path d="M0 0 C1.98 0 3.96 0 6 0 C6 0.99 6 1.98 6 3 C6.639375 2.505 7.27875 2.01 7.9375 1.5 C12.07083546 -0.52449084 15.47898263 -0.81754383 20 0 C23.0625 1.75 23.0625 1.75 25 5 C26.03529678 11.44287368 25.67356807 17.54972642 22.34375 23.24609375 C19.27123924 27.25643484 15.81083908 30.39638697 11 32 C3.94938918 32.47469459 3.94938918 32.47469459 1 31 C0.93941406 31.61488281 0.87882812 32.22976563 0.81640625 32.86328125 C0.73261719 33.67152344 0.64882813 34.47976563 0.5625 35.3125 C0.48128906 36.11300781 0.40007812 36.91351563 0.31640625 37.73828125 C0 40 0 40 -1 43 C-2.98 43 -4.96 43 -7 43 C-6.18896384 34.05806968 -4.5240544 25.26642379 -2.9375 16.4375 C-2.65272838 14.84054227 -2.36822092 13.24353742 -2.08398438 11.64648438 C-1.39236917 7.76377252 -0.69717537 3.88171716 0 0 Z M7.39453125 8.31640625 C3.23988352 13.33224147 2.59957344 19.72665056 3 26 C6.77699556 27.07914159 8.50524657 27.22758658 12.125 25.5625 C16.51699794 21.64789314 18.6526257 17.58049482 19.4375 11.75 C18.93823204 8.61174425 18.32839382 7.16207997 16 5 C11.80211758 5 10.46507882 5.57234728 7.39453125 8.31640625 Z " fill="#D9D9D9" transform="translate(406,224)"/>
<path d="M0 0 C1.98 0 3.96 0 6 0 C5.85764543 1.72945653 5.71095618 3.45855654 5.5625 5.1875 C5.48128906 6.15042969 5.40007813 7.11335937 5.31640625 8.10546875 C5.02333849 10.78649602 4.57296246 13.3662986 4 16 C4.5671875 15.67773438 5.134375 15.35546875 5.71875 15.0234375 C9.41424767 13.36552587 13.02819435 13.38670648 17 14 C19.50160818 15.87620613 20.61945652 17.23891303 22 20 C22.81425708 27.0613442 21.86637469 32.98035202 18 39 C14.51083736 42.91933337 10.34121578 45.68529631 5.05078125 46.18359375 C1.26497872 46.30255612 -1.93350184 46.35884474 -5 44 C-10.11051723 35.83595152 -4.81075017 22.51366607 -2.9375 13.8125 C-2.65241706 12.46561695 -2.36790819 11.11861225 -2.08398438 9.77148438 C-1.39493263 6.51308716 -0.70016192 3.25602458 0 0 Z M3 24 C0.12096388 29.2616867 -0.49620726 33.14475429 0 39 C0.66 39.66 1.32 40.32 2 41 C5.84257947 40.91460935 7.6563927 40.2716895 10.6875 37.875 C14.26578003 33.42632753 16.09677777 29.9678147 15.8125 24.1875 C15.27122371 20.93086454 15.27122371 20.93086454 13 19 C7.96688333 18.04778874 6.07055406 20.20220945 3 24 Z " fill="#D8D8D8" transform="translate(534,210)"/>
<path d="M0 0 C1.98 0 3.96 0 6 0 C5.50130596 5.36891879 4.97772468 10.69235173 4 16 C4.56589844 15.67644531 5.13179687 15.35289062 5.71484375 15.01953125 C8.18674007 13.9166852 9.87134914 13.70116066 12.5625 13.6875 C13.32691406 13.67074219 14.09132812 13.65398437 14.87890625 13.63671875 C17 14 17 14 18.71484375 15.01953125 C22.25683226 20.47785396 20.92021895 26.82752973 19.66601562 32.8125 C19.46685547 33.699375 19.26769531 34.58625 19.0625 35.5 C18.86720703 36.4178125 18.67191406 37.335625 18.47070312 38.28125 C17.99187467 40.52356862 17.50148387 42.76265962 17 45 C15.02 45 13.04 45 11 45 C11.85044313 35.68131462 11.85044313 35.68131462 12.5625 32.4375 C13.24374278 28.64200449 13.07540537 24.8456739 13 21 C10.760165 20.04979584 10.760165 20.04979584 8 20 C2.20840259 23.86106494 1.41594508 29.49550227 0 36 C-0.20625 36.89589844 -0.4125 37.79179687 -0.625 38.71484375 C-1.10071715 40.80601707 -1.55299228 42.90250226 -2 45 C-3.98 45 -5.96 45 -8 45 C-7.35496861 36.80003849 -5.95947853 28.80604507 -4.41601562 20.73852539 C-3.99634619 18.54338824 -3.58363693 16.34702343 -3.171875 14.15039062 C-1.14808914 3.44426741 -1.14808914 3.44426741 0 0 Z " fill="#D7D7D7" transform="translate(238,210)"/>
<path d="M0 0 C3.45614528 1.83387301 4.57924941 3.19674887 6.375 6.625 C7.54114436 12.92217955 7.06710284 18.70788134 3.9375 24.375 C1.07672215 28.44769239 -2.26297294 30.56535752 -7 32 C-12.03034882 32.59682105 -14.98439823 32.12324582 -19 29 C-21.93523603 26.16959383 -22.70109915 23.25801576 -23.0625 19.21484375 C-22.86580833 12.24458253 -19.82610091 6.82610091 -15 2 C-10.33992062 -0.91004957 -5.31489975 -0.63084864 0 0 Z M-15.3125 11.8125 C-16.39206378 15.24747567 -16.68116601 18.48295915 -16 22 C-13.99820005 25.16984261 -13.99820005 25.16984261 -11 27 C-8.41743146 27.40127511 -8.41743146 27.40127511 -6 26 C-1.31155812 21.09844712 0.33669488 17.77003225 0.2109375 10.94140625 C0.08420846 8.84256757 0.08420846 8.84256757 -1.125 6.5 C-2.98851186 4.77183369 -2.98851186 4.77183369 -5.875 4.4375 C-10.6177623 5.29119721 -12.5771414 8.03510003 -15.3125 11.8125 Z " fill="#D5D5D5" transform="translate(457,224)"/>
<path d="M0 0 C2.31 0 4.62 0 7 0 C8.32 6.6 9.64 13.2 11 20 C12.27875 17.4425 13.5575 14.885 14.875 12.25 C16.91666667 8.16666667 18.95833333 4.08333333 21 0 C22.98 0 24.96 0 27 0 C26.40554287 3.52077558 25.48112473 6.4684812 23.9609375 9.6953125 C23.5489209 10.57106934 23.1369043 11.44682617 22.71240234 12.34912109 C22.27105957 13.26516113 21.8297168 14.18120117 21.375 15.125 C20.92205566 16.06553223 20.46911133 17.00606445 20.00244141 17.97509766 C10.05438963 38.35432176 10.05438963 38.35432176 1 44 C-1.7421875 44.6796875 -1.7421875 44.6796875 -4 45 C-4.33 43.02 -4.66 41.04 -5 39 C-4.16855469 38.51080078 -4.16855469 38.51080078 -3.3203125 38.01171875 C-2.59585938 37.57472656 -1.87140625 37.13773437 -1.125 36.6875 C-0.40570313 36.25824219 0.31359375 35.82898438 1.0546875 35.38671875 C3.26846333 33.98247625 3.26846333 33.98247625 5 31 C5.59621882 20.84440606 2.09065705 9.88667214 0 0 Z " fill="#D3D3D3" transform="translate(184,224)"/>
<path d="M0 0 C1.98 0 3.96 0 6 0 C6.33 0.66 6.66 1.32 7 2 C7.56589844 1.67644531 8.13179688 1.35289062 8.71484375 1.01953125 C11.18674007 -0.0833148 12.87134914 -0.29883934 15.5625 -0.3125 C16.32691406 -0.32925781 17.09132813 -0.34601563 17.87890625 -0.36328125 C20.571016 0.09779832 21.28597767 0.90764148 23 3 C24.94793102 9.40971829 23.5825869 15.72142551 22.0625 22.0625 C21.86720703 22.92810547 21.67191406 23.79371094 21.47070312 24.68554688 C20.99325584 26.79330194 20.49844652 28.89711189 20 31 C18.02 31 16.04 31 14 31 C14.74833071 22.63051177 15.85697185 14.3230205 17 6 C12.36959956 5.74808229 12.36959956 5.74808229 8.3125 7.8125 C5.09483587 12.24765867 4.15336328 16.70173745 3 22 C2.79375 22.89589844 2.5875 23.79179687 2.375 24.71484375 C1.89928285 26.80601707 1.44700772 28.90250226 1 31 C-0.98 31 -2.96 31 -5 31 C-4.4181676 23.85288346 -3.33465406 16.90520275 -1.9375 9.875 C-1.75123047 8.91851562 -1.56496094 7.96203125 -1.37304688 6.9765625 C-0.91940944 4.65021669 -0.46167962 2.32476064 0 0 Z " fill="#D7D7D7" transform="translate(282,224)"/>
<path d="M0 0 C3.20458719 2.53385964 3.81817802 4.03028279 4.5625 8 C3.79507073 12.09295612 2.24907211 13.45724792 -1 16 C-5.93531617 18.35549181 -10.65153031 18.21393879 -16 18 C-14.80409156 21.66456014 -14.80409156 21.66456014 -13 25 C-8.81485809 26.48805046 -5.28565593 25.91835484 -1 25 C-0.67 26.65 -0.34 28.3 0 30 C-4.96541546 31.98616619 -8.72722269 32.41847439 -14 32 C-17.74379643 30.33609048 -19.82871075 28.44243618 -22 25 C-23.32464288 18.08977967 -21.92181405 12.13873899 -18.46875 6.10546875 C-13.86258027 -0.49752456 -7.56413526 -1.35706015 0 0 Z M-11.8125 7.3125 C-14.15007563 9.86085624 -14.15007563 9.86085624 -15 13 C-10.54719212 13.17461992 -6.91405938 13.30238787 -3 11 C-2.01382865 9.05714832 -2.01382865 9.05714832 -2 7 C-2.33 6.34 -2.66 5.68 -3 5 C-7.12141609 4.52076557 -8.53775846 4.61993474 -11.8125 7.3125 Z " fill="#D6D6D6" transform="translate(157,224)"/>
<path d="M0 0 C2.625 1.5 2.625 1.5 4 4 C4.79290558 8.99530516 4.79290558 8.99530516 4 12 C0.67425214 15.63511975 -2.06709166 17.6558436 -7 18 C-10.00229513 18.06085733 -12.99774307 18.05886778 -16 18 C-14.80204734 21.66328758 -14.80204734 21.66328758 -13 25 C-8.57572156 26.60882852 -4.56431598 25.82157688 0 25 C0.33 26.32 0.66 27.64 1 29 C-5.06855209 31.97235204 -9.56970563 33.12144239 -16.25 30.9375 C-19.7393765 28.47907565 -21.19196938 26.10941289 -22 22 C-22.38126433 14.90617285 -20.58884171 9.4118405 -16 4 C-11.16637926 -0.49639138 -6.34011563 -1.04221079 0 0 Z M-11.875 7.875 C-14.18743667 10.64579981 -14.18743667 10.64579981 -14 13 C-12.37419034 12.88601335 -10.74932843 12.75844341 -9.125 12.625 C-7.76761719 12.52058594 -7.76761719 12.52058594 -6.3828125 12.4140625 C-3.82058097 12.20431868 -3.82058097 12.20431868 -2 10 C-2.32041397 7.39719432 -2.32041397 7.39719432 -3 5 C-7.20466152 4.41330304 -9.15856332 4.66820369 -11.875 7.875 Z " fill="#D5D5D5" transform="translate(101,224)"/>
<path d="M0 0 C2.625 1.5625 2.625 1.5625 4 4 C4.5904398 8.0592736 4.43656597 10.21418126 2.4375 13.8125 C-2.86934313 18.57505153 -9.25864757 18.27515724 -16 18 C-14.80204734 21.66328758 -14.80204734 21.66328758 -13 25 C-8.57572156 26.60882852 -4.56431598 25.82157688 0 25 C0 26.65 0 28.3 0 30 C-4.70617261 31.88246904 -8.98123127 32.81979888 -14 32 C-18.0610554 29.89426757 -20.29925261 28.22468759 -22 24 C-22.86744549 18.00674023 -21.99279037 12.27617858 -19 7 C-13.65849638 0.2866348 -8.27829288 -0.94841326 0 0 Z M-11.8125 7.3125 C-14.15007563 9.86085624 -14.15007563 9.86085624 -15 13 C-9.73946963 13.31563182 -6.55426184 12.66590937 -2 10 C-2.33 8.35 -2.66 6.7 -3 5 C-7.12141609 4.52076557 -8.53775846 4.61993474 -11.8125 7.3125 Z " fill="#D6D6D6" transform="translate(595,224)"/>
<path d="M0 0 C2.31 0 4.62 0 7 0 C7.99 6.6 8.98 13.2 10 20 C12.07376003 17.23498662 13.5656146 15.11252114 15.04296875 12.109375 C15.39423828 11.40039062 15.74550781 10.69140625 16.10742188 9.9609375 C16.46384766 9.23132813 16.82027344 8.50171875 17.1875 7.75 C17.73954102 6.63238281 17.73954102 6.63238281 18.30273438 5.4921875 C19.2054758 3.66325683 20.1032362 1.83186904 21 0 C23.31 0 25.62 0 28 0 C27.31076392 3.55641616 25.85818726 6.36520454 24.12890625 9.53515625 C23.55462891 10.59154297 22.98035156 11.64792969 22.38867188 12.73632812 C21.78603516 13.83396484 21.18339844 14.93160156 20.5625 16.0625 C19.6643457 17.71475586 19.6643457 17.71475586 18.74804688 19.40039062 C14.31294643 27.53058036 14.31294643 27.53058036 12 31 C9.69 31 7.38 31 5 31 C3.35 20.77 1.7 10.54 0 0 Z " fill="#D2D2D2" transform="translate(108,224)"/>
<path d="M0 0 C1.50433594 0.01353516 1.50433594 0.01353516 3.0390625 0.02734375 C3.80992187 0.03894531 4.58078125 0.05054688 5.375 0.0625 C6.5 3.8125 6.5 3.8125 5.375 6.0625 C2.405 6.0625 -0.565 6.0625 -3.625 6.0625 C-3.955 7.3825 -4.285 8.7025 -4.625 10.0625 C-3.77615234 10.78566406 -3.77615234 10.78566406 -2.91015625 11.5234375 C-2.17667969 12.15507812 -1.44320313 12.78671875 -0.6875 13.4375 C0.04339844 14.06398437 0.77429688 14.69046875 1.52734375 15.3359375 C3.88729464 17.5412193 4.31209728 18.60121335 4.75 21.8125 C4.22467842 26.36528706 2.59594518 27.84155482 -0.625 31.0625 C-5.96146866 32.84132289 -10.57758476 32.50973163 -15.625 30.0625 C-15.295 28.4125 -14.965 26.7625 -14.625 25.0625 C-14.01011719 25.16949219 -13.39523437 25.27648437 -12.76171875 25.38671875 C-11.95347656 25.50660156 -11.14523437 25.62648437 -10.3125 25.75 C-9.51199219 25.87761719 -8.71148437 26.00523437 -7.88671875 26.13671875 C-5.52850321 26.28992807 -5.52850321 26.28992807 -3.83203125 24.58203125 C-3.43371094 24.08058594 -3.03539062 23.57914063 -2.625 23.0625 C-4.73923056 19.05658947 -7.04461781 16.79489693 -10.625 14.0625 C-12.05162219 11.20925563 -11.93533868 9.22795451 -11.625 6.0625 C-8.12625101 0.81437652 -6.14416147 -0.07144374 0 0 Z " fill="#D2D2D2" transform="translate(381.625,223.9375)"/>
<path d="M0 0 C1.50433594 0.01353516 1.50433594 0.01353516 3.0390625 0.02734375 C3.80992187 0.03894531 4.58078125 0.05054688 5.375 0.0625 C6.5 3.8125 6.5 3.8125 5.375 6.0625 C2.405 6.0625 -0.565 6.0625 -3.625 6.0625 C-3.955 7.3825 -4.285 8.7025 -4.625 10.0625 C-3.77615234 10.78566406 -3.77615234 10.78566406 -2.91015625 11.5234375 C-2.17667969 12.15507812 -1.44320313 12.78671875 -0.6875 13.4375 C0.04339844 14.06398437 0.77429688 14.69046875 1.52734375 15.3359375 C3.92642531 17.57778539 4.32297612 18.59428506 4.6875 21.875 C4.29647661 25.86343862 3.22414102 27.29036279 0.375 30.0625 C-4.29832775 33.08641796 -9.38767567 31.81504757 -14.625 31.0625 C-15.75 27.3125 -15.75 27.3125 -14.625 25.0625 C-13.99851562 25.14628906 -13.37203125 25.23007813 -12.7265625 25.31640625 C-11.90929687 25.41824219 -11.09203125 25.52007812 -10.25 25.625 C-9.43789063 25.72941406 -8.62578125 25.83382812 -7.7890625 25.94140625 C-5.57600814 26.24487328 -5.57600814 26.24487328 -3.625 25.0625 C-3.03536322 22.82025342 -3.03536322 22.82025342 -3.625 20.0625 C-5.2976711 18.30833979 -7.07263882 16.86723715 -8.99609375 15.39453125 C-11.36286035 13.4591178 -11.59866245 12.29953794 -11.9375 9.25 C-11.55335642 5.3317355 -10.33243683 3.84956733 -7.625 1.0625 C-4.98041621 -0.25979189 -2.94738699 -0.03427194 0 0 Z " fill="#D3D3D3" transform="translate(480.625,223.9375)"/>
<path d="M0 0 C1.50433594 0.01353516 1.50433594 0.01353516 3.0390625 0.02734375 C3.80992187 0.03894531 4.58078125 0.05054688 5.375 0.0625 C6.5 3.8125 6.5 3.8125 5.375 6.0625 C2.405 6.0625 -0.565 6.0625 -3.625 6.0625 C-3.955 7.3825 -4.285 8.7025 -4.625 10.0625 C-4.05910156 10.48660156 -3.49320312 10.91070312 -2.91015625 11.34765625 C3.06921522 16.12905171 3.06921522 16.12905171 4.5625 20.6875 C4.3484652 24.54012643 3.88700797 26.14532946 1.375 29.0625 C-3.36366816 32.52981816 -7.10171349 32.14755257 -12.6484375 31.38671875 C-13.30070312 31.27972656 -13.95296875 31.17273438 -14.625 31.0625 C-15.75 27.3125 -15.75 27.3125 -14.625 25.0625 C-13.99851562 25.14628906 -13.37203125 25.23007813 -12.7265625 25.31640625 C-11.90929687 25.41824219 -11.09203125 25.52007812 -10.25 25.625 C-9.43789063 25.72941406 -8.62578125 25.83382812 -7.7890625 25.94140625 C-5.57600814 26.24487328 -5.57600814 26.24487328 -3.625 25.0625 C-3.03536322 22.82025342 -3.03536322 22.82025342 -3.625 20.0625 C-5.2976711 18.30833979 -7.07263882 16.86723715 -8.99609375 15.39453125 C-11.36286035 13.4591178 -11.59866245 12.29953794 -11.9375 9.25 C-11.55335642 5.3317355 -10.33243683 3.84956733 -7.625 1.0625 C-4.98041621 -0.25979189 -2.94738699 -0.03427194 0 0 Z " fill="#D4D4D4" transform="translate(503.625,223.9375)"/>
<path d="M0 0 C-0.33 2.31 -0.66 4.62 -1 7 C0.98 7 2.96 7 5 7 C5 8.65 5 10.3 5 12 C2.36 12 -0.28 12 -3 12 C-3.06058594 12.68964844 -3.12117187 13.37929687 -3.18359375 14.08984375 C-3.71678217 20.06975696 -4.31555093 26.03551528 -5 32 C-3.68 32.33 -2.36 32.66 -1 33 C-0.957279 34.66611905 -0.95936168 36.33382885 -1 38 C-2 39 -2 39 -4.8125 39.25 C-8.3830441 38.96995733 -9.45924756 38.43760223 -12 36 C-13.90474884 28.36600663 -10.79254013 19.40489793 -9 12 C-10.32 12 -11.64 12 -13 12 C-12.67 10.35 -12.34 8.7 -12 7 C-11.38125 6.938125 -10.7625 6.87625 -10.125 6.8125 C-9.42375 6.544375 -8.7225 6.27625 -8 6 C-7.29788106 4.34795544 -6.63028587 2.68076231 -6 1 C-3 0 -3 0 0 0 Z " fill="#D6D6D6" transform="translate(225,217)"/>
<path d="M0 0 C1.98 0 3.96 0 6 0 C5.31542429 9.54549235 3.35873471 18.76925794 1.4375 28.125 C1.1043679 29.76553373 0.77168195 31.40615811 0.43945312 33.046875 C-0.36855756 37.03231398 -1.18259766 41.01647709 -2 45 C-3.98 45 -5.96 45 -8 45 C-7.35496861 36.80003849 -5.95947853 28.80604507 -4.41601562 20.73852539 C-3.99634619 18.54338824 -3.58363693 16.34702343 -3.171875 14.15039062 C-1.14808914 3.44426741 -1.14808914 3.44426741 0 0 Z " fill="#D6D6D6" transform="translate(567,210)"/>
<path d="M0 0 C1.2065625 0.0309375 1.2065625 0.0309375 2.4375 0.0625 C2.7675 0.7225 3.0975 1.3825 3.4375 2.0625 C4.4275 1.4025 5.4175 0.7425 6.4375 0.0625 C9.625 -0.0625 9.625 -0.0625 12.4375 0.0625 C12.375 2.875 12.375 2.875 11.4375 6.0625 C10.32375 6.536875 9.21 7.01125 8.0625 7.5 C4.20661202 8.71031553 4.20661202 8.71031553 2.81640625 12.1640625 C1.32562056 16.02686934 0.48012882 19.93441932 -0.25 24 C-0.37955078 24.68384766 -0.50910156 25.36769531 -0.64257812 26.07226562 C-0.95639598 27.73433798 -1.26049166 29.39824127 -1.5625 31.0625 C-3.8725 31.0625 -6.1825 31.0625 -8.5625 31.0625 C-7.87388336 26.80749415 -7.18001598 22.55338879 -6.48120117 18.30004883 C-6.24406591 16.85204469 -6.0083845 15.40380169 -5.77416992 13.95532227 C-5.43787609 11.87712593 -5.09641681 9.79983584 -4.75390625 7.72265625 C-4.54967041 6.47105713 -4.34543457 5.21945801 -4.13500977 3.92993164 C-3.3667571 0.08211603 -3.3667571 0.08211603 0 0 Z " fill="#D2D2D2" transform="translate(170.5625,223.9375)"/>
<path d="M0 0 C1.98 0 3.96 0 6 0 C5.3361521 6.74912036 4.28486811 13.34289348 3 20 C2.82210937 20.95261719 2.64421875 21.90523437 2.4609375 22.88671875 C2.28820312 23.79035156 2.11546875 24.69398438 1.9375 25.625 C1.78152344 26.44226563 1.62554688 27.25953125 1.46484375 28.1015625 C1 30 1 30 0 31 C-1.99958364 31.04080783 -4.00045254 31.04254356 -6 31 C-4.94402658 23.74484147 -3.77193527 16.52123563 -2.4375 9.3125 C-2.31076904 8.61769531 -2.18403809 7.92289063 -2.0534668 7.20703125 C-1.12048151 2.24096301 -1.12048151 2.24096301 0 0 Z " fill="#D3D3D3" transform="translate(518,224)"/>
<path d="M0 0 C1.98 0 3.96 0 6 0 C5.3361521 6.74912036 4.28486811 13.34289348 3 20 C2.82210938 20.95261719 2.64421875 21.90523437 2.4609375 22.88671875 C2.28820312 23.79035156 2.11546875 24.69398438 1.9375 25.625 C1.78152344 26.44226563 1.62554687 27.25953125 1.46484375 28.1015625 C1 30 1 30 0 31 C-1.99958364 31.04080783 -4.00045254 31.04254356 -6 31 C-4.94402658 23.74484147 -3.77193527 16.52123563 -2.4375 9.3125 C-2.31076904 8.61769531 -2.18403809 7.92289063 -2.0534668 7.20703125 C-1.12048151 2.24096301 -1.12048151 2.24096301 0 0 Z " fill="#D3D3D3" transform="translate(359,224)"/>
<path d="M0 0 C1.98 0 3.96 0 6 0 C5.57706486 10.59452526 3.31761729 20.69468775 1 31 C-0.98 31 -2.96 31 -5 31 C-4.51739376 20.47918394 -2.17218433 10.27221291 0 0 Z " fill="#D5D5D5" transform="translate(268,224)"/>
<path d="M0 0 C0.99 0.66 1.98 1.32 3 2 C2.62403791 4.78211944 2.32681541 6.5879284 0.5625 8.8125 C-1 10 -1 10 -3 10 C-4.59108002 11.44748074 -6.12559489 12.95775474 -7.625 14.5 C-8.44226563 15.3353125 -9.25953125 16.170625 -10.1015625 17.03125 C-10.72804688 17.6809375 -11.35453125 18.330625 -12 19 C-12.66 18.67 -13.32 18.34 -14 18 C-13.28972656 17.31292969 -12.57945312 16.62585938 -11.84765625 15.91796875 C-10.92855469 15.01691406 -10.00945313 14.11585938 -9.0625 13.1875 C-7.68771484 11.84751953 -7.68771484 11.84751953 -6.28515625 10.48046875 C-3.82064892 8.14563407 -3.82064892 8.14563407 -3 5 C-2.34 5 -1.68 5 -1 5 C-0.67 3.35 -0.34 1.7 0 0 Z " fill="#9A9A9A" transform="translate(954,253)"/>
<path d="M0 0 C0.66 0.33 1.32 0.66 2 1 C-4.6 7.6 -11.2 14.2 -18 21 C-18.66 20.67 -19.32 20.34 -20 20 C-13.6688763 12.89967436 -7.30341903 6.13126536 0 0 Z " fill="#ADADAD" transform="translate(787,70)"/>
<path d="M0 0 C1.98 0 3.96 0 6 0 C6.625 2.375 6.625 2.375 7 5 C5 7 5 7 2.375 7.125 C1.59125 7.08375 0.8075 7.0425 0 7 C-1.125 2.25 -1.125 2.25 0 0 Z " fill="#C8C8C8" transform="translate(270,213)"/>
<path d="M0 0 C2.5 0.125 2.5 0.125 3.5 1.125 C3.625 3.625 3.625 3.625 3.5 6.125 C2.5 7.125 2.5 7.125 0 7.25 C-2.5 7.125 -2.5 7.125 -3.5 6.125 C-3.625 3.625 -3.625 3.625 -3.5 1.125 C-2.5 0.125 -2.5 0.125 0 0 Z " fill="#D1D1D1" transform="translate(522.5,212.875)"/>
<path d="M0 0 C2.5 0.125 2.5 0.125 3.5 1.125 C3.625 3.625 3.625 3.625 3.5 6.125 C2.5 7.125 2.5 7.125 0 7.25 C-2.5 7.125 -2.5 7.125 -3.5 6.125 C-3.625 3.625 -3.625 3.625 -3.5 1.125 C-2.5 0.125 -2.5 0.125 0 0 Z " fill="#D1D1D1" transform="translate(363.5,212.875)"/>
<path d="M0 0 C0.66 0.33 1.32 0.66 2 1 C-2.95 5.95 -7.9 10.9 -13 16 C-13 11.93645091 -11.47015238 10.94829419 -8.75 8 C-7.96109375 7.13375 -7.1721875 6.2675 -6.359375 5.375 C-4.3351828 3.33740256 -2.34982916 1.63841299 0 0 Z " fill="#ACACAC" transform="translate(417,96)"/>
<path d="M0 0 C0.66 0.33 1.32 0.66 2 1 C-2.95 5.95 -7.9 10.9 -13 16 C-13 10.79628205 -8.49504984 7.5790344 -5 4 C-3.37707762 2.6137538 -1.7331451 1.24569804 0 0 Z " fill="#A5A5A5" transform="translate(26,96)"/>
<path d="M0 0 C0.66 0.33 1.32 0.66 2 1 C-1.96 4.96 -5.92 8.92 -10 13 C-10.66 12.67 -11.32 12.34 -12 12 C-8.27653164 7.57905197 -4.70478962 3.42166518 0 0 Z " fill="#A0A0A0" transform="translate(282,96)"/>
<path d="M0 0 C0.66 0.33 1.32 0.66 2 1 C-1.63 4.63 -5.26 8.26 -9 12 C-9.66 11.67 -10.32 11.34 -11 11 C-9.73347137 9.53792657 -8.46161082 8.08047074 -7.1875 6.625 C-6.47980469 5.81289062 -5.77210937 5.00078125 -5.04296875 4.1640625 C-3 2 -3 2 0 0 Z " fill="#ACACAC" transform="translate(131,95)"/>
<path d="M0 0 C4.14536674 0.4710644 6.9919792 0.9919792 10 4 C10 4.99 10 5.98 10 7 C6.4124787 5.66749209 3.1635377 4.169283 0 2 C0 1.34 0 0.68 0 0 Z " fill="#575757" transform="translate(904,11)"/>
<path d="M0 0 C3.83663072 1.34929464 6.65172569 3.07751025 9.8125 5.625 C10.99779297 6.57246094 10.99779297 6.57246094 12.20703125 7.5390625 C12.79871094 8.02117188 13.39039063 8.50328125 14 9 C13.34 9.66 12.68 10.32 12 11 C9.99702215 9.35767739 7.99756092 7.71138756 6 6.0625 C5.42765625 5.59392578 4.8553125 5.12535156 4.265625 4.64257812 C2.82502935 3.45065672 1.41025129 2.22767412 0 1 C0 0.67 0 0.34 0 0 Z " fill="#212121" transform="translate(914,18)"/>
<path d="M0 0 C0.66 0.99 1.32 1.98 2 3 C-2.05606165 2.53199289 -5.46588679 2.12046792 -9 0 C-5.68518735 -1.10493755 -3.33868884 -1.05432279 0 0 Z " fill="#929292" transform="translate(890,62)"/>
<path d="M0 0 C5.75 0.75 5.75 0.75 8 3 C7.01 3.66 6.02 4.32 5 5 C3.35 3.35 1.7 1.7 0 0 Z " fill="#BDBDBD" transform="translate(912,15)"/>
<path d="M0 0 C1.485 0.99 1.485 0.99 3 2 C2.67 3.65 2.34 5.3 2 7 C1.67 6.34 1.34 5.68 1 5 C0.34 5 -0.32 5 -1 5 C-0.67 3.35 -0.34 1.7 0 0 Z " fill="#6D6D6D" transform="translate(954,253)"/>
<path d="M0 0 C0.66 0.33 1.32 0.66 2 1 C-0.31 3.31 -2.62 5.62 -5 8 C-5 5 -5 5 -2.5 2.3125 C-1.675 1.549375 -0.85 0.78625 0 0 Z " fill="#AFAFAF" transform="translate(319,226)"/>
<path d="M0 0 C0.66 0.33 1.32 0.66 2 1 C-0.31 3.31 -2.62 5.62 -5 8 C-5 5 -5 5 -2.5 2.3125 C-1.675 1.549375 -0.85 0.78625 0 0 Z " fill="#A5A5A5" transform="translate(144,225)"/>
</svg>
