<?xml version="1.0" encoding="UTF-8"?>
<svg version="1.1" xmlns="http://www.w3.org/2000/svg" width="798" height="174">
<path d="M0 0 C1.02909639 0.97003125 2.04038756 1.96118146 3 3 C5.15292894 1.92851916 7.29900645 0.84618418 9.4375 -0.25390625 C10.283125 -0.68574219 11.12875 -1.11757812 12 -1.5625 C12.845625 -1.99691406 13.69125 -2.43132812 14.5625 -2.87890625 C21.99927728 -6.29934708 32.84113947 -6.50869969 40.5625 -3.75 C48.53283109 0.3076231 52.48884491 4.28046954 56.05517578 12.40332031 C57.40316866 17.53474954 57.24558839 22.45968788 57.1953125 27.7421875 C57.1924826 28.86569611 57.18965271 29.98920471 57.18673706 31.14675903 C57.17557303 34.72294927 57.15047501 38.2988859 57.125 41.875 C57.11496533 44.30468387 57.10584033 46.73437169 57.09765625 49.1640625 C57.07735062 55.1095505 57.03819384 61.05449251 57 67 C49.41 67 41.82 67 34 67 C33.96261719 63.80957031 33.92523438 60.61914062 33.88671875 57.33203125 C33.8404897 54.23747961 33.78926097 51.14304827 33.73754883 48.04858398 C33.70432254 45.90022102 33.67628347 43.75177125 33.65356445 41.60327148 C33.61997669 38.51248224 33.56765779 35.42248688 33.51171875 32.33203125 C33.50532883 31.37351761 33.4989389 30.41500397 33.49235535 29.42744446 C33.38411105 24.50275558 33.25435139 20.97058898 30 17 C26.36222245 14.48554435 23.40638564 14.86115452 19.1875 15.46484375 C15.93994564 16.25933473 14.21460159 17.51696185 12 20 C9.75933835 25.17464888 9.65984601 30.01464217 9.5859375 35.5546875 C9.56657135 36.45623566 9.5472052 37.35778381 9.5272522 38.28665161 C9.46775704 41.14933996 9.42119183 44.01206918 9.375 46.875 C9.33679253 48.82293363 9.2977392 50.77085086 9.2578125 52.71875 C9.16049744 57.47907848 9.08069076 62.2392449 9 67 C1.74 67 -5.52 67 -13 67 C-13.05607422 62.34003906 -13.05607422 62.34003906 -13.11328125 57.5859375 C-13.15953094 54.56747514 -13.21075214 51.54913509 -13.26245117 48.53076172 C-13.29564549 46.43773876 -13.32369445 44.34462747 -13.34643555 42.25146484 C-13.38008231 39.23757388 -13.43240393 36.22448837 -13.48828125 33.2109375 C-13.49467117 32.27945892 -13.5010611 31.34798035 -13.50764465 30.38827515 C-13.62430842 25.19897818 -14.09283879 21.48369926 -17 17 C-20.56756835 14.41734316 -23.62738877 14.86896453 -27.8125 15.4609375 C-31.02031737 16.25143535 -32.78276054 17.58119331 -35 20 C-37.54853006 24.70389379 -37.34659453 29.46060131 -37.4140625 34.67578125 C-37.43342865 35.6009404 -37.4527948 36.52609955 -37.4727478 37.47929382 C-37.53235254 40.42360317 -37.57885248 43.36795202 -37.625 46.3125 C-37.66319736 48.31316775 -37.70225012 50.31381936 -37.7421875 52.31445312 C-37.83964276 57.20954972 -37.91936295 62.10448202 -38 67 C-45.59 67 -53.18 67 -61 67 C-61.0225528 57.89040511 -61.04091611 48.78082863 -61.05181217 39.6712122 C-61.05704056 35.44168629 -61.0641374 31.2121804 -61.07543945 26.98266602 C-61.08626991 22.90431457 -61.09227717 18.82598243 -61.09487724 14.74761772 C-61.09673121 13.18822361 -61.10035127 11.6288306 -61.10573006 10.06944466 C-61.11294262 7.89270838 -61.11399085 5.71605286 -61.11352539 3.53930664 C-61.115746 2.29798477 -61.11796661 1.0566629 -61.12025452 -0.22227478 C-61 -3 -61 -3 -60 -4 C-58.43827255 -4.08685603 -56.87270656 -4.10702219 -55.30859375 -4.09765625 C-54.36435547 -4.09443359 -53.42011719 -4.09121094 -52.44726562 -4.08789062 C-50.95743164 -4.07532227 -50.95743164 -4.07532227 -49.4375 -4.0625 C-48.44041016 -4.05798828 -47.44332031 -4.05347656 -46.41601562 -4.04882812 C-43.94395151 -4.03700007 -41.47200482 -4.02051849 -39 -4 C-38.34 -2.02 -37.68 -0.04 -37 2 C-36.39671875 1.57847656 -35.7934375 1.15695313 -35.171875 0.72265625 C-34.37265625 0.17480469 -33.5734375 -0.37304688 -32.75 -0.9375 C-31.96109375 -1.48277344 -31.1721875 -2.02804688 -30.359375 -2.58984375 C-21.13014015 -8.10599239 -8.44956367 -5.89311415 0 0 Z " fill="#2D2D3E" transform="translate(379,69)"/>
<path d="M0 0 C0.85384277 -0.00056396 1.70768555 -0.00112793 2.58740234 -0.00170898 C11.6444147 0.15093729 22.35227804 1.26988902 30.5625 5.375 C30.67891602 14.81604894 30.76747764 24.25684663 30.82156086 33.69845963 C30.8475327 38.08373824 30.88269995 42.46852182 30.93969727 46.85351562 C30.99446513 51.09406064 31.02401361 55.33413287 31.03688622 59.57500458 C31.04604657 61.18399232 31.0639324 62.79295743 31.09115028 64.40174103 C31.26206354 74.93344427 30.88299408 85.19421531 23.64936829 93.59747314 C15.18643172 101.78700809 4.17994004 104.30575055 -7.3046875 104.41015625 C-18.00446562 104.10655231 -28.28674097 102.23014746 -37.4375 96.375 C-36.50135433 94.64509975 -35.56352042 92.91611304 -34.625 91.1875 C-34.10292969 90.22457031 -33.58085938 89.26164062 -33.04296875 88.26953125 C-31.56286134 85.60101643 -30.02412491 82.98125773 -28.4375 80.375 C-22.4375 82.375 -22.4375 82.375 -19.6953125 83.421875 C-15.99336116 84.5049399 -12.79152272 84.7108331 -8.9375 84.75 C-7.6690625 84.77835937 -6.400625 84.80671875 -5.09375 84.8359375 C-0.83224843 84.29869692 1.25718761 83.06785745 4.5625 80.375 C6.69836678 77.17119983 6.79382175 76.35560033 6.6875 72.6875 C6.66945312 71.87925781 6.65140625 71.07101563 6.6328125 70.23828125 C6.60960937 69.62339844 6.58640625 69.00851563 6.5625 68.375 C5.510625 68.849375 4.45875 69.32375 3.375 69.8125 C-5.1692969 73.42805078 -14.6737535 73.43348871 -23.4375 70.375 C-31.94391823 66.45689221 -37.36627956 61.19469716 -41.25 52.6875 C-44.81542013 42.74185436 -44.53972442 32.11160495 -40.4375 22.375 C-35.68479525 12.78254463 -28.50244831 6.09707922 -18.4375 2.375 C-12.29208659 0.62884457 -6.3740788 -0.01081215 0 0 Z M-15.4375 23.375 C-19.64614496 29.02344456 -20.92355398 34.54049885 -20.21875 41.55078125 C-19.24639575 46.51539767 -17.28724809 49.19895782 -13.4375 52.375 C-9.26047704 54.46351148 -3.98590084 53.81975888 0.5625 53.375 C3.76249014 52.11294781 5.98768973 50.52462054 7.5625 47.375 C7.64793895 45.26971067 7.66964725 43.16168843 7.66015625 41.0546875 C7.65693359 39.79785156 7.65371094 38.54101562 7.65039062 37.24609375 C7.64201172 35.92738281 7.63363281 34.60867187 7.625 33.25 C7.61998489 31.91015789 7.61542201 30.570314 7.61132812 29.23046875 C7.59951086 25.94526794 7.58303617 22.66015603 7.5625 19.375 C-4.78178274 18.31965039 -4.78178274 18.31965039 -15.4375 23.375 Z " fill="#2D2D3E" transform="translate(135.4375,63.625)"/>
<path d="M0 0 C7.59 0 15.18 0 23 0 C23.33 11.22 23.66 22.44 24 34 C25.98 32.68 27.96 31.36 30 30 C38.41839551 26.97554211 48.75095829 26.18119699 57.125 29.75 C58.43755587 30.46281124 59.73310148 31.20887996 61 32 C61.9075 32.53625 62.815 33.0725 63.75 33.625 C69.62304581 39.82432613 72.13527011 47.65046804 72.11352539 56.06567383 C72.11341209 57.53663261 72.11341209 57.53663261 72.11329651 59.03730774 C72.10813522 60.0833165 72.10297394 61.12932526 72.09765625 62.20703125 C72.0962413 63.28756271 72.09482635 64.36809418 72.09336853 65.48136902 C72.0877808 68.92510776 72.0752305 72.36878098 72.0625 75.8125 C72.05748342 78.15038968 72.05292079 80.48828039 72.04882812 82.82617188 C72.03866722 88.55082668 72.01908927 94.27534017 72 100 C64.41 100 56.82 100 49 100 C48.94392578 95.34003906 48.94392578 95.34003906 48.88671875 90.5859375 C48.84046906 87.56747514 48.78924786 84.54913509 48.73754883 81.53076172 C48.70435451 79.43773876 48.67630555 77.34462747 48.65356445 75.25146484 C48.61991769 72.23757388 48.56759607 69.22448837 48.51171875 66.2109375 C48.50532883 65.27945892 48.4989389 64.34798035 48.49235535 63.38827515 C48.37580156 58.20387041 47.91982579 54.47169293 45 50 C41.23171807 47.45086811 37.49044318 47.83686596 33.15234375 48.46484375 C29.92581461 49.26708421 28.20175405 50.53136667 26 53 C23.75933835 58.17464888 23.65984601 63.01464217 23.5859375 68.5546875 C23.56657135 69.45623566 23.5472052 70.35778381 23.5272522 71.28665161 C23.46775704 74.14933996 23.42119183 77.01206918 23.375 79.875 C23.33679253 81.82293363 23.2977392 83.77085086 23.2578125 85.71875 C23.16049744 90.47907848 23.08069076 95.2392449 23 100 C15.41 100 7.82 100 0 100 C0 67 0 34 0 0 Z " fill="#2E2E3F" transform="translate(177,36)"/>
<path d="M0 0 C4.14413986 1.70042103 7.24383235 4.64149405 10.5625 7.5625 C11.82335107 8.65855103 13.08507833 9.75359489 14.34765625 10.84765625 C15.27989014 11.65614014 15.27989014 11.65614014 16.23095703 12.48095703 C18.61880319 14.53135433 21.05414785 16.51933221 23.5 18.5 C28.42617151 22.49932147 33.24927593 26.60917117 38.0546875 30.75195312 C38.61027344 31.23083984 39.16585937 31.70972656 39.73828125 32.203125 C40.27791504 32.66912109 40.81754883 33.13511719 41.37353516 33.61523438 C43.01513574 35.01288651 44.68330997 36.37353562 46.35546875 37.734375 C49 40 49 40 50 42 C50.11051179 43.63771719 50.15913334 45.27979827 50.17700195 46.92114258 C50.19625481 48.45832695 50.19625481 48.45832695 50.21589661 50.02656555 C50.22328354 51.13799423 50.23067047 52.24942291 50.23828125 53.39453125 C50.246353 54.53403732 50.25442474 55.6735434 50.26274109 56.84757996 C50.27658987 59.26271031 50.28730846 61.6778603 50.29516602 64.09301758 C50.31238115 67.78699824 50.35626194 71.48008471 50.40039062 75.17382812 C50.41051706 77.51822257 50.41903331 79.86262464 50.42578125 82.20703125 C50.44328934 83.31238724 50.46079742 84.41774323 50.47883606 85.55659485 C50.45714786 93.22380291 50.45714786 93.22380291 48.14038086 97.1574707 C42.05530018 102.39576247 33.27016253 101.78617115 25.65234375 101.57421875 C19.02137552 101.04866587 15.38363347 97.76409977 11 93 C9.58100571 91.62645393 8.14441046 90.27076123 6.6875 88.9375 C6.09324219 88.34839844 5.49898437 87.75929688 4.88671875 87.15234375 C3.02327698 85.78150816 3.02327698 85.78150816 0.57421875 86.05078125 C-2.6387139 87.23551969 -4.41459141 88.87605945 -6.875 91.25 C-8.55679454 92.86149445 -10.26744343 94.44321004 -12 96 C-12.51014648 96.46019531 -13.02029297 96.92039062 -13.54589844 97.39453125 C-18.39009148 101.34644702 -22.37398866 101.71291035 -28.5 101.5 C-29.72396484 101.50386719 -29.72396484 101.50386719 -30.97265625 101.5078125 C-36.35000211 101.42149876 -40.27924574 100.62264126 -45 98 C-47.81121082 94.98721649 -48.3816191 92.94760876 -48.41992188 88.86767578 C-48.43583374 87.84626495 -48.45174561 86.82485413 -48.46813965 85.77249146 C-48.46834106 84.6745224 -48.46854248 83.57655334 -48.46875 82.4453125 C-48.47636353 81.311008 -48.48397705 80.17670349 -48.49182129 79.00802612 C-48.5026246 76.60905152 -48.50547448 74.21002987 -48.50097656 71.81103516 C-48.50000539 68.1453577 -48.54160425 64.48178086 -48.5859375 60.81640625 C-48.59114538 58.48437936 -48.59383268 56.1523452 -48.59375 53.8203125 C-48.61014526 52.72639191 -48.62654053 51.63247131 -48.64343262 50.50540161 C-48.56654423 42.01364488 -48.56654423 42.01364488 -45.61303711 38.39453125 C-43.14524094 36.13309569 -40.69452038 33.94330569 -38.0625 31.875 C-33.63115317 28.33230819 -29.29307452 24.70893487 -25 21 C-19.87031162 16.57795129 -14.67935504 12.25022695 -9.421875 7.98046875 C-6.2337135 5.37337539 -3.1121233 2.69717352 0 0 Z M-4.75 20.75 C-5.73484375 21.56984375 -6.7196875 22.3896875 -7.734375 23.234375 C-11.71628265 26.59547366 -15.6747096 29.98456053 -19.61230469 33.39746094 C-20.15274414 33.86442383 -20.69318359 34.33138672 -21.25 34.8125 C-21.81420654 35.32304932 -22.37841309 35.83359863 -22.9597168 36.35961914 C-25 38 -25 38 -27.86254883 39.63842773 C-31.82816011 42.14986446 -35.30737145 44.38697909 -36.56878662 49.14581299 C-37.38030992 55.44135801 -37.00130202 61.74286106 -36.6875 68.0625 C-36.63225836 69.99660556 -36.58207955 71.93086274 -36.53710938 73.86523438 C-36.41652146 78.58059598 -36.22713495 83.28861764 -36 88 C-26.98328206 88.7452235 -26.98328206 88.7452235 -18.61328125 86.12890625 C-17.85402344 85.28199219 -17.09476563 84.43507813 -16.3125 83.5625 C-15.44625 82.65886719 -14.58 81.75523438 -13.6875 80.82421875 C-12.800625 79.89222656 -11.91375 78.96023437 -11 78 C-8.98500058 76.2234507 -6.90964138 74.55752797 -4.8125 72.875 C-3.89082031 72.12992188 -2.96914063 71.38484375 -2.01953125 70.6171875 C-1.35308594 70.08351562 -0.68664062 69.54984375 0 69 C4.01102026 70.67857782 7.06156654 73.43907769 10.3125 76.25 C11.18950562 76.98827026 11.18950562 76.98827026 12.08422852 77.74145508 C14.48097319 79.76808224 16.77473838 81.75772883 18.9140625 84.05859375 C21.6894661 87.02614068 23.22779761 87.94886626 27.41040039 88.22583008 C28.66844482 88.19900146 29.92648926 88.17217285 31.22265625 88.14453125 C32.48988525 88.12366455 33.75711426 88.10279785 35.06274414 88.08129883 C36.03203857 88.05447021 37.00133301 88.0276416 38 88 C38.37473435 82.39973928 38.64461392 76.80694567 38.82397461 71.19702148 C38.89879309 69.29598836 39.00071243 67.39580045 39.1315918 65.49780273 C40.0854101 54.74054325 40.0854101 54.74054325 36.57296753 44.87875366 C33.10297026 41.08003677 29.13171294 38.10438883 24.8605957 35.26422119 C22.14018322 33.41577927 19.69172374 31.31800849 17.1875 29.1875 C15.45930875 27.79045917 13.73015417 26.39460912 12 25 C11.06671875 24.23171875 10.1334375 23.4634375 9.171875 22.671875 C8.26953125 21.93453125 7.3671875 21.1971875 6.4375 20.4375 C5.63183594 19.77621094 4.82617188 19.11492188 3.99609375 18.43359375 C0.09618153 15.63267832 -1.4499199 17.99667873 -4.75 20.75 Z " fill="#0BDEB7" transform="translate(742,7)"/>
<path d="M0 0 C8.20454002 6.69140764 11.980362 16.10043123 13.6875 26.3125 C13.77645063 28.22755483 13.81768139 30.14538749 13.8125 32.0625 C13.81636719 33.50882813 13.81636719 33.50882813 13.8203125 34.984375 C13.6875 37.3125 13.6875 37.3125 12.6875 38.3125 C11.12301617 38.43513388 9.55317228 38.49029522 7.98413086 38.51782227 C6.98316879 38.53776749 5.98220673 38.55771271 4.95091248 38.57826233 C3.8623848 38.59497482 2.77385712 38.61168732 1.65234375 38.62890625 C0.54395645 38.64968735 -0.56443085 38.67046844 -1.70640564 38.69187927 C-5.26253808 38.75749623 -8.81874703 38.81631596 -12.375 38.875 C-14.77930493 38.91817368 -17.18360199 38.96178758 -19.58789062 39.00585938 C-25.49601185 39.11318992 -31.40420991 39.21493331 -37.3125 39.3125 C-34.54096865 45.0875731 -33.03907435 46.64668091 -27.3125 49.3125 C-16.73426862 52.07586494 -6.82804926 48.95883126 2.6875 44.3125 C4.00768588 46.05670913 5.31838602 47.80810091 6.625 49.5625 C7.35589844 50.53703125 8.08679688 51.5115625 8.83984375 52.515625 C10.44095079 54.9392881 11.26386238 56.4882492 11.6875 59.3125 C-2.4756352 68.03928027 -17.36955631 70.89818348 -33.79296875 67.6171875 C-36.47826856 66.71577515 -38.833318 65.67710958 -41.3125 64.3125 C-42.52099609 63.65894531 -42.52099609 63.65894531 -43.75390625 62.9921875 C-51.57153242 58.27842938 -56.26001136 51.82733674 -59.3125 43.3125 C-62.29710403 31.14288214 -60.40163515 20.03642195 -54.625 9.125 C-40.82246761 -7.66186371 -18.66701826 -12.66816551 0 0 Z M-35.3125 15.3125 C-36.3025 17.9525 -37.2925 20.5925 -38.3125 23.3125 C-28.4125 23.3125 -18.5125 23.3125 -8.3125 23.3125 C-9.30641106 18.34294471 -9.96638209 16.84982465 -13.3125 13.3125 C-19.85387148 9.16818738 -29.93097807 9.79299033 -35.3125 15.3125 Z " fill="#303040" transform="translate(657.3125,69.6875)"/>
<path d="M0 0 C7.15287814 5.25618775 12.67942359 13.85200002 14.25390625 22.65625 C15.12729794 34.69760097 13.88511792 45.19742177 6.00390625 54.8125 C-2.00693535 63.25249383 -10.73205846 67.66681057 -22.3815918 68.12670898 C-35.38028737 68.28910879 -44.78605875 64.99381781 -54.39453125 56.13671875 C-61.74632451 48.46771614 -64.47557638 38.96461905 -64.26733398 28.52539062 C-63.72662497 18.2679312 -59.97427625 9.94123551 -52.74609375 2.65625 C-37.01639547 -10.06670949 -16.99313304 -10.85007556 0 0 Z M-36.74609375 16.65625 C-41.19231395 22.54448756 -42.70459567 27.38946802 -41.74609375 34.65625 C-40.07308459 40.00362509 -37.9542894 44.47877097 -32.93359375 47.28125 C-27.24153564 49.52389954 -22.25065186 49.52389954 -16.55859375 47.28125 C-11.52913939 44.48380201 -9.48153193 39.97504665 -7.74609375 34.65625 C-6.69235555 29.08359607 -7.92426636 23.52936889 -10.74609375 18.65625 C-13.74073389 15.43002436 -16.88646857 12.82606607 -21.35546875 12.41796875 C-29.79658624 12.18845704 -29.79658624 12.18845704 -36.74609375 16.65625 Z " fill="#2D2D3E" transform="translate(506.74609375,70.34375)"/>
<path d="M0 0 C7.59 0 15.18 0 23 0 C23 6.93 23 13.86 23 21 C28.87883003 20.96042231 28.87883003 20.96042231 34.75756836 20.90991211 C35.48596924 20.90741455 36.21437012 20.90491699 36.96484375 20.90234375 C37.7137085 20.89710693 38.46257324 20.89187012 39.23413086 20.88647461 C41 21 41 21 42 22 C42.09981214 24.6773138 42.13879875 27.32304175 42.125 30 C42.13080078 31.12535156 42.13080078 31.12535156 42.13671875 32.2734375 C42.12661053 37.87338947 42.12661053 37.87338947 41 39 C39.65732587 39.08631874 38.31025678 39.10706473 36.96484375 39.09765625 C36.15595703 39.09443359 35.34707031 39.09121094 34.51367188 39.08789062 C33.66353516 39.07951172 32.81339844 39.07113281 31.9375 39.0625 C31.08349609 39.05798828 30.22949219 39.05347656 29.34960938 39.04882812 C27.23304337 39.03700373 25.11651315 39.01906769 23 39 C23.11846698 43.48422272 23.24272997 47.96823642 23.37231445 52.45214844 C23.41556707 53.97684386 23.45724885 55.50158469 23.49731445 57.02636719 C23.55525203 59.22084222 23.61887795 61.41509068 23.68359375 63.609375 C23.70030624 64.2886908 23.71701874 64.96800659 23.73423767 65.66790771 C23.83507472 68.90538552 24.03139176 71.89769604 25 75 C26.70796558 75.05470352 28.41645625 75.09310718 30.125 75.125 C31.07632813 75.14820312 32.02765625 75.17140625 33.0078125 75.1953125 C36.57774091 75.08937885 36.57774091 75.08937885 42 73 C44.31 77.95 46.62 82.9 49 88 C38.47520192 93.63299052 29.9903381 96.40431259 18 94 C11.49188227 91.7402369 6.70441956 88.83726718 3 83 C-0.9787389 74.20641039 -0.33848765 65.38894727 -0.1875 55.9375 C-0.17242751 54.29232994 -0.15874364 52.64714655 -0.14648438 51.00195312 C-0.11367782 47.00096859 -0.06203766 43.00063369 0 39 C-3.96 39 -7.92 39 -12 39 C-12.02684312 36.18743719 -12.04676188 33.37512759 -12.0625 30.5625 C-12.07087891 29.76005859 -12.07925781 28.95761719 -12.08789062 28.13085938 C-12.0965143 26.08704779 -12.0522815 24.04316098 -12 22 C-11 21 -11 21 -8.49609375 20.90234375 C-5.6640625 20.93489583 -2.83203125 20.96744792 0 21 C0 14.07 0 7.14 0 0 Z " fill="#303040" transform="translate(264,44)"/>
<path d="M0 0 C7.92 0 15.84 0 24 0 C26.74198192 5.48396385 29.15295787 10.72087585 31.234375 16.4375 C31.51726379 17.20304199 31.80015259 17.96858398 32.09161377 18.75732422 C32.98205158 21.16998813 33.86612933 23.58492357 34.75 26 C35.35765134 27.64989491 35.96572053 29.29963599 36.57421875 30.94921875 C38.0543095 34.96438595 39.52870654 38.98160128 41 43 C42.63846904 40.54229643 43.53795537 38.80907504 44.49633789 36.09521484 C44.77324966 35.3178598 45.05016144 34.54050476 45.33546448 33.73959351 C45.62823776 32.90513702 45.92101105 32.07068054 46.22265625 31.2109375 C46.52819931 30.35190826 46.83374237 29.49287903 47.14854431 28.6078186 C48.12376818 25.86491285 49.09358469 23.12013999 50.0625 20.375 C51.03542945 17.62288306 52.00955661 14.87121577 52.98716736 12.12075806 C53.59545413 10.40901944 54.20096078 8.69628996 54.80348206 6.98251343 C56.88767911 1.11232089 56.88767911 1.11232089 58 0 C59.78071246 -0.08726223 61.5648314 -0.10699041 63.34765625 -0.09765625 C64.42724609 -0.09443359 65.50683594 -0.09121094 66.61914062 -0.08789062 C68.32360352 -0.07532227 68.32360352 -0.07532227 70.0625 -0.0625 C71.77276367 -0.05573242 71.77276367 -0.05573242 73.51757812 -0.04882812 C76.34510351 -0.03699747 79.1725264 -0.0205141 82 0 C81.41049288 5.3568946 79.58565111 9.62669404 77.3515625 14.45703125 C76.79828278 15.67624519 76.79828278 15.67624519 76.23382568 16.92008972 C75.0372051 19.55382326 73.83107454 22.18308432 72.625 24.8125 C71.39193389 27.52126879 70.16139044 30.23117441 68.93093872 32.94113159 C68.11329864 34.74141112 67.29483919 36.54131873 66.47555542 38.34085083 C61.54278222 49.18069964 56.77356099 60.08900346 52 71 C44.74 71 37.48 71 30 71 C25.08576098 61.53984756 20.91449376 51.77973913 16.6875 42 C15.59611839 39.4806038 14.50392057 36.961565 13.41091919 34.44287109 C12.68893331 32.7783438 11.96811995 31.11330742 11.24850464 29.44775391 C9.42680699 25.24085315 7.57697909 21.04987921 5.67431641 16.87890625 C5.30200394 16.05849854 4.92969147 15.23809082 4.5460968 14.39282227 C3.83797841 12.83699172 3.12376972 11.28391377 2.4025116 9.73413086 C0.79241122 6.18908371 0 3.95882315 0 0 Z " fill="#2F2F40" transform="translate(518,65)"/>
<path d="M0 0 C-0.2844814 2.20927044 -0.5779096 4.41738979 -0.875 6.625 C-1.03742187 7.85476562 -1.19984375 9.08453125 -1.3671875 10.3515625 C-1.95483689 13.73961517 -2.81988122 16.77698651 -4 20 C-4.70125 19.95359375 -5.4025 19.9071875 -6.125 19.859375 C-12.7111878 19.60881351 -17.56094095 20.09777582 -23 24 C-26.44105182 27.55205349 -27.09568309 31.21005599 -27.20532227 36.03417969 C-27.22526749 36.81468689 -27.24521271 37.59519409 -27.26576233 38.39935303 C-27.29083107 39.6480014 -27.29083107 39.6480014 -27.31640625 40.921875 C-27.33718735 41.78186096 -27.35796844 42.64184692 -27.37937927 43.52789307 C-27.44463739 46.26851598 -27.50364917 49.00923275 -27.5625 51.75 C-27.60570781 53.6106867 -27.64932282 55.47136398 -27.69335938 57.33203125 C-27.80105894 61.88792612 -27.90030868 66.4438947 -28 71 C-35.59 71 -43.18 71 -51 71 C-51.0225528 61.89040511 -51.04091611 52.78082863 -51.05181217 43.6712122 C-51.05704056 39.44168629 -51.0641374 35.2121804 -51.07543945 30.98266602 C-51.08626991 26.90431457 -51.09227717 22.82598243 -51.09487724 18.74761772 C-51.09673121 17.18822361 -51.10035127 15.6288306 -51.10573006 14.06944466 C-51.11294262 11.89270838 -51.11399085 9.71605286 -51.11352539 7.53930664 C-51.115746 6.29798477 -51.11796661 5.0566629 -51.12025452 3.77772522 C-51 1 -51 1 -50 0 C-48.43827255 -0.08685603 -46.87270656 -0.10702219 -45.30859375 -0.09765625 C-44.36435547 -0.09443359 -43.42011719 -0.09121094 -42.44726562 -0.08789062 C-40.95743164 -0.07532227 -40.95743164 -0.07532227 -39.4375 -0.0625 C-38.44041016 -0.05798828 -37.44332031 -0.05347656 -36.41601562 -0.04882812 C-33.94395151 -0.03700007 -31.47200482 -0.02051849 -29 0 C-28.34 2.31 -27.68 4.62 -27 7 C-26.56429688 6.59007813 -26.12859375 6.18015625 -25.6796875 5.7578125 C-18.3530706 -0.87103136 -9.66226138 -3.22075379 0 0 Z " fill="#303040" transform="translate(57,65)"/>
<path d="M0 0 C1.40958984 -0.00193359 1.40958984 -0.00193359 2.84765625 -0.00390625 C3.83636719 -0.00003906 4.82507813 0.00382812 5.84375 0.0078125 C7.32681641 0.00201172 7.32681641 0.00201172 8.83984375 -0.00390625 C9.77957031 -0.00261719 10.71929687 -0.00132813 11.6875 0 C12.55568359 0.00112793 13.42386719 0.00225586 14.31835938 0.00341797 C16.34375 0.1328125 16.34375 0.1328125 17.34375 1.1328125 C17.43804342 3.31086969 17.46117538 5.4920253 17.45727539 7.67211914 C17.45742142 8.35501511 17.45756744 9.03791107 17.4577179 9.74150085 C17.45701876 12.00868864 17.4492264 14.27579524 17.44140625 16.54296875 C17.43954207 18.11095637 17.43811817 19.67894457 17.43711853 21.24693298 C17.43329334 25.38157753 17.42346306 29.51618716 17.41241455 33.65081787 C17.40220044 37.86681648 17.39762091 42.08282072 17.39257812 46.29882812 C17.38184078 54.57684076 17.36424399 62.85481827 17.34375 71.1328125 C9.75375 71.1328125 2.16375 71.1328125 -5.65625 71.1328125 C-5.6788028 62.02321761 -5.69716611 52.91364113 -5.70806217 43.8040247 C-5.71329056 39.57449879 -5.7203874 35.3449929 -5.73168945 31.11547852 C-5.74251991 27.03712707 -5.74852717 22.95879493 -5.75112724 18.88043022 C-5.75298121 17.32103611 -5.75660127 15.7616431 -5.76198006 14.20225716 C-5.76919262 12.02552088 -5.77024085 9.84886536 -5.76977539 7.67211914 C-5.771996 6.43079727 -5.77421661 5.1894754 -5.77650452 3.91053772 C-5.58025302 -0.62262041 -4.08971019 0.00531328 0 0 Z " fill="#303040" transform="translate(67.65625,64.8671875)"/>
<path d="M0 0 C3.35820574 1.95386516 5.43739063 3.36632679 6.73046875 7.12109375 C7.45740977 11.38917322 7.24981024 13.50930131 5.25 17.4375 C1.79501413 21.37234502 -0.8453414 22.6034878 -6 23 C-9.63713245 22.31019902 -12.28238108 21.47211771 -15.375 19.4375 C-17.79099344 15.81350984 -18.20072147 12.31551167 -18 8 C-16.44446848 4.23397633 -14.43685584 2.1480349 -11 0 C-7.116008 -1.294664 -3.89206667 -1.04278013 0 0 Z " fill="#333343" transform="translate(79,36)"/>
</svg>
